<svg width="600" height="600" viewbox = "0 0 600 600"  xmlns="http://www.w3.org/2000/svg">
<!--<json>{
  "shapes": [],
  "glyph": "0323,0506,0506,0502,0502,0505,0502,0502,0502,0502,0505,0502,0502,0502,0502,0502,0505,0502,0502,0502,0502,0504,0502,0504,0502,0504,0502,0500,0506,0500,0500,0500,0507,0500,0500,0500,0507,0500,0505,0506,0506,0505,0501,0506,0501,0506,0501,0501,0506,0501,0506,0501,0501,0506,0501,0501,0501,0501,0501,0501,0507,0501,0507,0501,0507,0501,0503,0503,0505,0503,0503,0504,0503,0503,0503,0503,0504,0503,0503,0503,0504,0503,0503,0503,0504,0503,0503,0504,0503,0503,0504,0503,0503,0504,0503,0503,0503,0504,0503,0503,0503,0504,0503,0503,0504,0503,0503,0504,0503,0503,0504,0503,0503,0504,0503,0503,0503,0504,0503,0503,0504,0503,0503,0504,0503,0503,0504,0503,0503,0504,0503,0503,0504,0503,0503,0503,0503,0505,0505,0506,0506,0506,0506,0506,0506,0506,0502,0502,0505,0502,0502,0502,0502,0505,0502,0502,0502,0505,0502,0502,0502,0505,0502,0502,0502,0502,0505,0502,0502,0502,0502,0502,0505,0502,0502,0504,0504,0504,0504,0504,0504,0504,0504,0504,0504,0504,0504,0506,0506,0506,0506,0506,0506,0506,0506,0506,0506,0506,0506,0506,0506,0506,0506,0506,01104,01125,01116,01113,01111,01116,0505,0505,0505,0505,0505,0505,0505,0505,0505,0505,0505,0505,0505,0505,0505,0505,0505,0505,0505,0505,0505,0505,0505,0505,0505,0505,0505,0505,0505,0505,0505,0505,0505,0505,0506,0506,0506,0506,0506,0506,0506,0506,0506,0506,0506,0506,0506,0506,0506,0506,0506,0506,0506,0506,0506,0506,0506,0506,0506,0506,0506,0506,0506,0506,0506,0506,0506,0506,0506,0506,01104,01117,01116,01125,01124,01123,0504,0504,0504,0504,0504,0504,0504,0504,0504,0504,0504,0504,0504,0504,0504,0504,0504,0504,0504,0504,0504,0504,0506,0506,0506,0506,0506,0506,0506,0506,0506,0506,0506,0506,0506,0506,0506,0506,0506,",
  "x0": 300,
  "y0": 300,
  "unit": 72,
  "width": 600,
  "height": 600,
  "style": {
    "color0": "black",
    "fill0": "black",
    "line0": 1,
    "color1": "black",
    "fill1": "black",
    "line1": 5,
    "color2": "red",
    "fill2": "red",
    "line2": 1,
    "color3": "#FF7900",
    "fill3": "#FF7900",
    "line3": 1,
    "color4": "yellow",
    "fill4": "yellow",
    "line4": 1,
    "color5": "green",
    "fill5": "green",
    "line5": 1,
    "color6": "blue",
    "fill6": "blue",
    "line6": 1,
    "color7": "purple",
    "fill7": "purple",
    "line7": 1
  }
}</json>-->	<path d = "M275 302 L275 298 L271 298 L271 302 L275 302 Z" stroke = "#ff7900" stroke-width = "1" fill = "#ff7900" />	<path d = "M266 302 L266 298 L262 298 L262 302 L266 302 Z" stroke = "#ff7900" stroke-width = "1" fill = "#ff7900" />	<path d = "M257 311 L257 307 L253 307 L253 311 L257 311 Z" stroke = "#ff7900" stroke-width = "1" fill = "#ff7900" />	<path d = "M248 311 L248 307 L244 307 L244 311 L248 311 Z" stroke = "#ff7900" stroke-width = "1" fill = "#ff7900" />	<path d = "M239 311 L239 307 L235 307 L235 311 L239 311 Z" stroke = "#ff7900" stroke-width = "1" fill = "#ff7900" />	<path d = "M230 311 L230 307 L226 307 L226 311 L230 311 Z" stroke = "#ff7900" stroke-width = "1" fill = "#ff7900" />	<path d = "M221 320 L221 316 L217 316 L217 320 L221 320 Z" stroke = "#ff7900" stroke-width = "1" fill = "#ff7900" />	<path d = "M212 320 L212 316 L208 316 L208 320 L212 320 Z" stroke = "#ff7900" stroke-width = "1" fill = "#ff7900" />	<path d = "M203 320 L203 316 L199 316 L199 320 L203 320 Z" stroke = "#ff7900" stroke-width = "1" fill = "#ff7900" />	<path d = "M194 320 L194 316 L190 316 L190 320 L194 320 Z" stroke = "#ff7900" stroke-width = "1" fill = "#ff7900" />	<path d = "M185 320 L185 316 L181 316 L181 320 L185 320 Z" stroke = "#ff7900" stroke-width = "1" fill = "#ff7900" />	<path d = "M176 329 L176 325 L172 325 L172 329 L176 329 Z" stroke = "#ff7900" stroke-width = "1" fill = "#ff7900" />	<path d = "M167 329 L167 325 L163 325 L163 329 L167 329 Z" stroke = "#ff7900" stroke-width = "1" fill = "#ff7900" />	<path d = "M158 329 L158 325 L154 325 L154 329 L158 329 Z" stroke = "#ff7900" stroke-width = "1" fill = "#ff7900" />	<path d = "M149 329 L149 325 L145 325 L145 329 L149 329 Z" stroke = "#ff7900" stroke-width = "1" fill = "#ff7900" />	<path d = "M140 320 L140 316 L136 316 L136 320 L140 320 Z" stroke = "#ff7900" stroke-width = "1" fill = "#ff7900" />	<path d = "M131 311 L131 307 L127 307 L127 311 L131 311 Z" stroke = "#ff7900" stroke-width = "1" fill = "#ff7900" />	<path d = "M122 302 L122 298 L118 298 L118 302 L122 302 Z" stroke = "#ff7900" stroke-width = "1" fill = "#ff7900" />	<path d = "M122 293 L122 289 L118 289 L118 293 L122 293 Z" stroke = "#ff7900" stroke-width = "1" fill = "#ff7900" />	<path d = "M113 284 L113 280 L109 280 L109 284 L113 284 Z" stroke = "#ff7900" stroke-width = "1" fill = "#ff7900" />	<path d = "M113 275 L113 271 L109 271 L109 275 L113 275 Z" stroke = "#ff7900" stroke-width = "1" fill = "#ff7900" />	<path d = "M113 266 L113 262 L109 262 L109 266 L113 266 Z" stroke = "#ff7900" stroke-width = "1" fill = "#ff7900" />	<path d = "M122 257 L122 253 L118 253 L118 257 L122 257 Z" stroke = "#ff7900" stroke-width = "1" fill = "#ff7900" />	<path d = "M122 248 L122 244 L118 244 L118 248 L122 248 Z" stroke = "#ff7900" stroke-width = "1" fill = "#ff7900" />	<path d = "M122 239 L122 235 L118 235 L118 239 L122 239 Z" stroke = "#ff7900" stroke-width = "1" fill = "#ff7900" />	<path d = "M131 230 L131 226 L127 226 L127 230 L131 230 Z" stroke = "#ff7900" stroke-width = "1" fill = "#ff7900" />	<path d = "M113 257 L113 253 L109 253 L109 257 L113 257 Z" stroke = "#ff7900" stroke-width = "1" fill = "#ff7900" />	<path d = "M104 266 L104 262 L100 262 L100 266 L104 266 Z" stroke = "#ff7900" stroke-width = "1" fill = "#ff7900" />	<path d = "M95 275 L95 271 L91 271 L91 275 L95 275 Z" stroke = "#ff7900" stroke-width = "1" fill = "#ff7900" />	<path d = "M95 284 L95 280 L91 280 L91 284 L95 284 Z" stroke = "#ff7900" stroke-width = "1" fill = "#ff7900" />	<path d = "M86 293 L86 289 L82 289 L82 293 L86 293 Z" stroke = "#ff7900" stroke-width = "1" fill = "#ff7900" />	<path d = "M77 302 L77 298 L73 298 L73 302 L77 302 Z" stroke = "#ff7900" stroke-width = "1" fill = "#ff7900" />	<path d = "M77 311 L77 307 L73 307 L73 311 L77 311 Z" stroke = "#ff7900" stroke-width = "1" fill = "#ff7900" />	<path d = "M68 320 L68 316 L64 316 L64 320 L68 320 Z" stroke = "#ff7900" stroke-width = "1" fill = "#ff7900" />	<path d = "M68 329 L68 325 L64 325 L64 329 L68 329 Z" stroke = "#ff7900" stroke-width = "1" fill = "#ff7900" />	<path d = "M68 338 L68 334 L64 334 L64 338 L68 338 Z" stroke = "#ff7900" stroke-width = "1" fill = "#ff7900" />	<path d = "M68 347 L68 343 L64 343 L64 347 L68 347 Z" stroke = "#ff7900" stroke-width = "1" fill = "#ff7900" />	<path d = "M68 356 L68 352 L64 352 L64 356 L68 356 Z" stroke = "#ff7900" stroke-width = "1" fill = "#ff7900" />	<path d = "M68 365 L68 361 L64 361 L64 365 L68 365 Z" stroke = "#ff7900" stroke-width = "1" fill = "#ff7900" />	<path d = "M77 374 L77 370 L73 370 L73 374 L77 374 Z" stroke = "#ff7900" stroke-width = "1" fill = "#ff7900" />	<path d = "M86 383 L86 379 L82 379 L82 383 L86 383 Z" stroke = "#ff7900" stroke-width = "1" fill = "#ff7900" />	<path d = "M95 392 L95 388 L91 388 L91 392 L95 392 Z" stroke = "#ff7900" stroke-width = "1" fill = "#ff7900" />	<path d = "M104 392 L104 388 L100 388 L100 392 L104 392 Z" stroke = "#ff7900" stroke-width = "1" fill = "#ff7900" />	<path d = "M113 392 L113 388 L109 388 L109 392 L113 392 Z" stroke = "#ff7900" stroke-width = "1" fill = "#ff7900" />	<path d = "M122 401 L122 397 L118 397 L118 401 L122 401 Z" stroke = "#ff7900" stroke-width = "1" fill = "#ff7900" />	<path d = "M131 401 L131 397 L127 397 L127 401 L131 401 Z" stroke = "#ff7900" stroke-width = "1" fill = "#ff7900" />	<path d = "M140 392 L140 388 L136 388 L136 392 L140 392 Z" stroke = "#ff7900" stroke-width = "1" fill = "#ff7900" />	<path d = "M149 392 L149 388 L145 388 L145 392 L149 392 Z" stroke = "#ff7900" stroke-width = "1" fill = "#ff7900" />	<path d = "M158 392 L158 388 L154 388 L154 392 L158 392 Z" stroke = "#ff7900" stroke-width = "1" fill = "#ff7900" />	<path d = "M167 392 L167 388 L163 388 L163 392 L167 392 Z" stroke = "#ff7900" stroke-width = "1" fill = "#ff7900" />	<path d = "M176 383 L176 379 L172 379 L172 383 L176 383 Z" stroke = "#ff7900" stroke-width = "1" fill = "#ff7900" />	<path d = "M185 383 L185 379 L181 379 L181 383 L185 383 Z" stroke = "#ff7900" stroke-width = "1" fill = "#ff7900" />	<path d = "M194 383 L194 379 L190 379 L190 383 L194 383 Z" stroke = "#ff7900" stroke-width = "1" fill = "#ff7900" />	<path d = "M203 374 L203 370 L199 370 L199 374 L203 374 Z" stroke = "#ff7900" stroke-width = "1" fill = "#ff7900" />	<path d = "M212 374 L212 370 L208 370 L208 374 L212 374 Z" stroke = "#ff7900" stroke-width = "1" fill = "#ff7900" />	<path d = "M221 374 L221 370 L217 370 L217 374 L221 374 Z" stroke = "#ff7900" stroke-width = "1" fill = "#ff7900" />	<path d = "M230 365 L230 361 L226 361 L226 365 L230 365 Z" stroke = "#ff7900" stroke-width = "1" fill = "#ff7900" />	<path d = "M239 365 L239 361 L235 361 L235 365 L239 365 Z" stroke = "#ff7900" stroke-width = "1" fill = "#ff7900" />	<path d = "M248 356 L248 352 L244 352 L244 356 L248 356 Z" stroke = "#ff7900" stroke-width = "1" fill = "#ff7900" />	<path d = "M257 356 L257 352 L253 352 L253 356 L257 356 Z" stroke = "#ff7900" stroke-width = "1" fill = "#ff7900" />	<path d = "M266 347 L266 343 L262 343 L262 347 L266 347 Z" stroke = "#ff7900" stroke-width = "1" fill = "#ff7900" />	<path d = "M275 347 L275 343 L271 343 L271 347 L275 347 Z" stroke = "#ff7900" stroke-width = "1" fill = "#ff7900" />	<path d = "M284 338 L284 334 L280 334 L280 338 L284 338 Z" stroke = "#ff7900" stroke-width = "1" fill = "#ff7900" />	<path d = "M293 338 L293 334 L289 334 L289 338 L293 338 Z" stroke = "#ff7900" stroke-width = "1" fill = "#ff7900" />	<path d = "M302 338 L302 334 L298 334 L298 338 L302 338 Z" stroke = "#ff7900" stroke-width = "1" fill = "#ff7900" />	<path d = "M311 329 L311 325 L307 325 L307 329 L311 329 Z" stroke = "#ff7900" stroke-width = "1" fill = "#ff7900" />	<path d = "M320 329 L320 325 L316 325 L316 329 L320 329 Z" stroke = "#ff7900" stroke-width = "1" fill = "#ff7900" />	<path d = "M329 329 L329 325 L325 325 L325 329 L329 329 Z" stroke = "#ff7900" stroke-width = "1" fill = "#ff7900" />	<path d = "M338 320 L338 316 L334 316 L334 320 L338 320 Z" stroke = "#ff7900" stroke-width = "1" fill = "#ff7900" />	<path d = "M347 320 L347 316 L343 316 L343 320 L347 320 Z" stroke = "#ff7900" stroke-width = "1" fill = "#ff7900" />	<path d = "M356 311 L356 307 L352 307 L352 311 L356 311 Z" stroke = "#ff7900" stroke-width = "1" fill = "#ff7900" />	<path d = "M365 311 L365 307 L361 307 L361 311 L365 311 Z" stroke = "#ff7900" stroke-width = "1" fill = "#ff7900" />	<path d = "M374 302 L374 298 L370 298 L370 302 L374 302 Z" stroke = "#ff7900" stroke-width = "1" fill = "#ff7900" />	<path d = "M383 302 L383 298 L379 298 L379 302 L383 302 Z" stroke = "#ff7900" stroke-width = "1" fill = "#ff7900" />	<path d = "M392 293 L392 289 L388 289 L388 293 L392 293 Z" stroke = "#ff7900" stroke-width = "1" fill = "#ff7900" />	<path d = "M401 293 L401 289 L397 289 L397 293 L401 293 Z" stroke = "#ff7900" stroke-width = "1" fill = "#ff7900" />	<path d = "M410 284 L410 280 L406 280 L406 284 L410 284 Z" stroke = "#ff7900" stroke-width = "1" fill = "#ff7900" />	<path d = "M419 284 L419 280 L415 280 L415 284 L419 284 Z" stroke = "#ff7900" stroke-width = "1" fill = "#ff7900" />	<path d = "M428 284 L428 280 L424 280 L424 284 L428 284 Z" stroke = "#ff7900" stroke-width = "1" fill = "#ff7900" />	<path d = "M437 275 L437 271 L433 271 L433 275 L437 275 Z" stroke = "#ff7900" stroke-width = "1" fill = "#ff7900" />	<path d = "M446 275 L446 271 L442 271 L442 275 L446 275 Z" stroke = "#ff7900" stroke-width = "1" fill = "#ff7900" />	<path d = "M455 266 L455 262 L451 262 L451 266 L455 266 Z" stroke = "#ff7900" stroke-width = "1" fill = "#ff7900" />	<path d = "M464 266 L464 262 L460 262 L460 266 L464 266 Z" stroke = "#ff7900" stroke-width = "1" fill = "#ff7900" />	<path d = "M473 257 L473 253 L469 253 L469 257 L473 257 Z" stroke = "#ff7900" stroke-width = "1" fill = "#ff7900" />	<path d = "M482 257 L482 253 L478 253 L478 257 L482 257 Z" stroke = "#ff7900" stroke-width = "1" fill = "#ff7900" />	<path d = "M491 248 L491 244 L487 244 L487 248 L491 248 Z" stroke = "#ff7900" stroke-width = "1" fill = "#ff7900" />	<path d = "M500 248 L500 244 L496 244 L496 248 L500 248 Z" stroke = "#ff7900" stroke-width = "1" fill = "#ff7900" />	<path d = "M509 239 L509 235 L505 235 L505 239 L509 239 Z" stroke = "#ff7900" stroke-width = "1" fill = "#ff7900" />	<path d = "M518 239 L518 235 L514 235 L514 239 L518 239 Z" stroke = "#ff7900" stroke-width = "1" fill = "#ff7900" />	<path d = "M527 230 L527 226 L523 226 L523 230 L527 230 Z" stroke = "#ff7900" stroke-width = "1" fill = "#ff7900" />	<path d = "M536 230 L536 226 L532 226 L532 230 L536 230 Z" stroke = "#ff7900" stroke-width = "1" fill = "#ff7900" />	<path d = "M545 230 L545 226 L541 226 L541 230 L545 230 Z" stroke = "#ff7900" stroke-width = "1" fill = "#ff7900" />	<path d = "M554 230 L554 226 L550 226 L550 230 L554 230 Z" stroke = "#ff7900" stroke-width = "1" fill = "#ff7900" />	<path d = "M482 248 L482 244 L478 244 L478 248 L482 248 Z" stroke = "#ff7900" stroke-width = "1" fill = "#ff7900" />	<path d = "M473 248 L473 244 L469 244 L469 248 L473 248 Z" stroke = "#ff7900" stroke-width = "1" fill = "#ff7900" />	<path d = "M464 257 L464 253 L460 253 L460 257 L464 257 Z" stroke = "#ff7900" stroke-width = "1" fill = "#ff7900" />	<path d = "M455 257 L455 253 L451 253 L451 257 L455 257 Z" stroke = "#ff7900" stroke-width = "1" fill = "#ff7900" />	<path d = "M446 257 L446 253 L442 253 L442 257 L446 257 Z" stroke = "#ff7900" stroke-width = "1" fill = "#ff7900" />	<path d = "M437 257 L437 253 L433 253 L433 257 L437 257 Z" stroke = "#ff7900" stroke-width = "1" fill = "#ff7900" />	<path d = "M428 266 L428 262 L424 262 L424 266 L428 266 Z" stroke = "#ff7900" stroke-width = "1" fill = "#ff7900" />	<path d = "M419 266 L419 262 L415 262 L415 266 L419 266 Z" stroke = "#ff7900" stroke-width = "1" fill = "#ff7900" />	<path d = "M410 266 L410 262 L406 262 L406 266 L410 266 Z" stroke = "#ff7900" stroke-width = "1" fill = "#ff7900" />	<path d = "M401 275 L401 271 L397 271 L397 275 L401 275 Z" stroke = "#ff7900" stroke-width = "1" fill = "#ff7900" />	<path d = "M392 275 L392 271 L388 271 L388 275 L392 275 Z" stroke = "#ff7900" stroke-width = "1" fill = "#ff7900" />	<path d = "M383 275 L383 271 L379 271 L379 275 L383 275 Z" stroke = "#ff7900" stroke-width = "1" fill = "#ff7900" />	<path d = "M374 284 L374 280 L370 280 L370 284 L374 284 Z" stroke = "#ff7900" stroke-width = "1" fill = "#ff7900" />	<path d = "M365 284 L365 280 L361 280 L361 284 L365 284 Z" stroke = "#ff7900" stroke-width = "1" fill = "#ff7900" />	<path d = "M356 284 L356 280 L352 280 L352 284 L356 284 Z" stroke = "#ff7900" stroke-width = "1" fill = "#ff7900" />	<path d = "M347 284 L347 280 L343 280 L343 284 L347 284 Z" stroke = "#ff7900" stroke-width = "1" fill = "#ff7900" />	<path d = "M338 293 L338 289 L334 289 L334 293 L338 293 Z" stroke = "#ff7900" stroke-width = "1" fill = "#ff7900" />	<path d = "M329 293 L329 289 L325 289 L325 293 L329 293 Z" stroke = "#ff7900" stroke-width = "1" fill = "#ff7900" />	<path d = "M320 293 L320 289 L316 289 L316 293 L320 293 Z" stroke = "#ff7900" stroke-width = "1" fill = "#ff7900" />	<path d = "M311 293 L311 289 L307 289 L307 293 L311 293 Z" stroke = "#ff7900" stroke-width = "1" fill = "#ff7900" />	<path d = "M302 293 L302 289 L298 289 L298 293 L302 293 Z" stroke = "#ff7900" stroke-width = "1" fill = "#ff7900" />	<path d = "M293 302 L293 298 L289 298 L289 302 L293 302 Z" stroke = "#ff7900" stroke-width = "1" fill = "#ff7900" />	<path d = "M284 302 L284 298 L280 298 L280 302 L284 302 Z" stroke = "#ff7900" stroke-width = "1" fill = "#ff7900" />	<path d = "M140 194 L140 190 L136 190 L136 194 L140 194 Z" stroke = "#ff7900" stroke-width = "1" fill = "#ff7900" />	<path d = "M140 185 L140 181 L136 181 L136 185 L140 185 Z" stroke = "#ff7900" stroke-width = "1" fill = "#ff7900" />	<path d = "M140 176 L140 172 L136 172 L136 176 L140 176 Z" stroke = "#ff7900" stroke-width = "1" fill = "#ff7900" />	<path d = "M140 167 L140 163 L136 163 L136 167 L140 167 Z" stroke = "#ff7900" stroke-width = "1" fill = "#ff7900" />	<path d = "M140 158 L140 154 L136 154 L136 158 L140 158 Z" stroke = "#ff7900" stroke-width = "1" fill = "#ff7900" />	<path d = "M140 149 L140 145 L136 145 L136 149 L140 149 Z" stroke = "#ff7900" stroke-width = "1" fill = "#ff7900" />	<path d = "M140 140 L140 136 L136 136 L136 140 L140 140 Z" stroke = "#ff7900" stroke-width = "1" fill = "#ff7900" />	<path d = "M149 140 L149 136 L145 136 L145 140 L149 140 Z" stroke = "#ff7900" stroke-width = "1" fill = "#ff7900" />	<path d = "M158 140 L158 136 L154 136 L154 140 L158 140 Z" stroke = "#ff7900" stroke-width = "1" fill = "#ff7900" />	<path d = "M167 149 L167 145 L163 145 L163 149 L167 149 Z" stroke = "#ff7900" stroke-width = "1" fill = "#ff7900" />	<path d = "M176 158 L176 154 L172 154 L172 158 L176 158 Z" stroke = "#ff7900" stroke-width = "1" fill = "#ff7900" />	<path d = "M176 167 L176 163 L172 163 L172 167 L176 167 Z" stroke = "#ff7900" stroke-width = "1" fill = "#ff7900" />	<path d = "M176 176 L176 172 L172 172 L172 176 L176 176 Z" stroke = "#ff7900" stroke-width = "1" fill = "#ff7900" />	<path d = "M167 185 L167 181 L163 181 L163 185 L167 185 Z" stroke = "#ff7900" stroke-width = "1" fill = "#ff7900" />	<path d = "M158 194 L158 190 L154 190 L154 194 L158 194 Z" stroke = "#ff7900" stroke-width = "1" fill = "#ff7900" />	<path d = "M149 194 L149 190 L145 190 L145 194 L149 194 Z" stroke = "#ff7900" stroke-width = "1" fill = "#ff7900" />	<path d = "M194 185 L194 181 L190 181 L190 185 L194 185 Z" stroke = "#ff7900" stroke-width = "1" fill = "#ff7900" />	<path d = "M194 176 L194 172 L190 172 L190 176 L194 176 Z" stroke = "#ff7900" stroke-width = "1" fill = "#ff7900" />	<path d = "M194 167 L194 163 L190 163 L190 167 L194 167 Z" stroke = "#ff7900" stroke-width = "1" fill = "#ff7900" />	<path d = "M194 158 L194 154 L190 154 L190 158 L194 158 Z" stroke = "#ff7900" stroke-width = "1" fill = "#ff7900" />	<path d = "M194 149 L194 145 L190 145 L190 149 L194 149 Z" stroke = "#ff7900" stroke-width = "1" fill = "#ff7900" />	<path d = "M194 140 L194 136 L190 136 L190 140 L194 140 Z" stroke = "#ff7900" stroke-width = "1" fill = "#ff7900" />	<path d = "M203 194 L203 190 L199 190 L199 194 L203 194 Z" stroke = "#ff7900" stroke-width = "1" fill = "#ff7900" />	<path d = "M212 194 L212 190 L208 190 L208 194 L212 194 Z" stroke = "#ff7900" stroke-width = "1" fill = "#ff7900" />	<path d = "M221 194 L221 190 L217 190 L217 194 L221 194 Z" stroke = "#ff7900" stroke-width = "1" fill = "#ff7900" />	<path d = "M230 185 L230 181 L226 181 L226 185 L230 185 Z" stroke = "#ff7900" stroke-width = "1" fill = "#ff7900" />	<path d = "M230 176 L230 172 L226 172 L226 176 L230 176 Z" stroke = "#ff7900" stroke-width = "1" fill = "#ff7900" />	<path d = "M230 167 L230 163 L226 163 L226 167 L230 167 Z" stroke = "#ff7900" stroke-width = "1" fill = "#ff7900" />	<path d = "M230 158 L230 154 L226 154 L226 158 L230 158 Z" stroke = "#ff7900" stroke-width = "1" fill = "#ff7900" />	<path d = "M230 149 L230 145 L226 145 L226 149 L230 149 Z" stroke = "#ff7900" stroke-width = "1" fill = "#ff7900" />	<path d = "M230 140 L230 136 L226 136 L226 140 L230 140 Z" stroke = "#ff7900" stroke-width = "1" fill = "#ff7900" />	<path d = "M248 194 L248 190 L244 190 L244 194 L248 194 Z" stroke = "#ff7900" stroke-width = "1" fill = "#ff7900" />	<path d = "M248 185 L248 181 L244 181 L244 185 L248 185 Z" stroke = "#ff7900" stroke-width = "1" fill = "#ff7900" />	<path d = "M248 176 L248 172 L244 172 L244 176 L248 176 Z" stroke = "#ff7900" stroke-width = "1" fill = "#ff7900" />	<path d = "M248 167 L248 163 L244 163 L244 167 L248 167 Z" stroke = "#ff7900" stroke-width = "1" fill = "#ff7900" />	<path d = "M248 158 L248 154 L244 154 L244 158 L248 158 Z" stroke = "#ff7900" stroke-width = "1" fill = "#ff7900" />	<path d = "M248 149 L248 145 L244 145 L244 149 L248 149 Z" stroke = "#ff7900" stroke-width = "1" fill = "#ff7900" />	<path d = "M248 140 L248 136 L244 136 L244 140 L248 140 Z" stroke = "#ff7900" stroke-width = "1" fill = "#ff7900" />	<path d = "M257 158 L257 154 L253 154 L253 158 L257 158 Z" stroke = "#ff7900" stroke-width = "1" fill = "#ff7900" />	<path d = "M266 167 L266 163 L262 163 L262 167 L266 167 Z" stroke = "#ff7900" stroke-width = "1" fill = "#ff7900" />	<path d = "M275 176 L275 172 L271 172 L271 176 L275 176 Z" stroke = "#ff7900" stroke-width = "1" fill = "#ff7900" />	<path d = "M284 185 L284 181 L280 181 L280 185 L284 185 Z" stroke = "#ff7900" stroke-width = "1" fill = "#ff7900" />	<path d = "M284 194 L284 190 L280 190 L280 194 L284 194 Z" stroke = "#ff7900" stroke-width = "1" fill = "#ff7900" />	<path d = "M284 176 L284 172 L280 172 L280 176 L284 176 Z" stroke = "#ff7900" stroke-width = "1" fill = "#ff7900" />	<path d = "M284 167 L284 163 L280 163 L280 167 L284 167 Z" stroke = "#ff7900" stroke-width = "1" fill = "#ff7900" />	<path d = "M284 158 L284 154 L280 154 L280 158 L284 158 Z" stroke = "#ff7900" stroke-width = "1" fill = "#ff7900" />	<path d = "M284 149 L284 145 L280 145 L280 149 L284 149 Z" stroke = "#ff7900" stroke-width = "1" fill = "#ff7900" />	<path d = "M284 140 L284 136 L280 136 L280 140 L284 140 Z" stroke = "#ff7900" stroke-width = "1" fill = "#ff7900" />	<path d = "M302 194 L302 190 L298 190 L298 194 L302 194 Z" stroke = "#ff7900" stroke-width = "1" fill = "#ff7900" />	<path d = "M302 185 L302 181 L298 181 L298 185 L302 185 Z" stroke = "#ff7900" stroke-width = "1" fill = "#ff7900" />	<path d = "M302 176 L302 172 L298 172 L298 176 L302 176 Z" stroke = "#ff7900" stroke-width = "1" fill = "#ff7900" />	<path d = "M302 167 L302 163 L298 163 L298 167 L302 167 Z" stroke = "#ff7900" stroke-width = "1" fill = "#ff7900" />	<path d = "M302 158 L302 154 L298 154 L298 158 L302 158 Z" stroke = "#ff7900" stroke-width = "1" fill = "#ff7900" />	<path d = "M302 149 L302 145 L298 145 L298 149 L302 149 Z" stroke = "#ff7900" stroke-width = "1" fill = "#ff7900" />	<path d = "M302 140 L302 136 L298 136 L298 140 L302 140 Z" stroke = "#ff7900" stroke-width = "1" fill = "#ff7900" />	<path d = "M311 167 L311 163 L307 163 L307 167 L311 167 Z" stroke = "#ff7900" stroke-width = "1" fill = "#ff7900" />	<path d = "M320 158 L320 154 L316 154 L316 158 L320 158 Z" stroke = "#ff7900" stroke-width = "1" fill = "#ff7900" />	<path d = "M329 149 L329 145 L325 145 L325 149 L329 149 Z" stroke = "#ff7900" stroke-width = "1" fill = "#ff7900" />	<path d = "M338 140 L338 136 L334 136 L334 140 L338 140 Z" stroke = "#ff7900" stroke-width = "1" fill = "#ff7900" />	<path d = "M320 176 L320 172 L316 172 L316 176 L320 176 Z" stroke = "#ff7900" stroke-width = "1" fill = "#ff7900" />	<path d = "M329 185 L329 181 L325 181 L325 185 L329 185 Z" stroke = "#ff7900" stroke-width = "1" fill = "#ff7900" />	<path d = "M338 194 L338 190 L334 190 L334 194 L338 194 Z" stroke = "#ff7900" stroke-width = "1" fill = "#ff7900" />	<path d = "M365 194 L365 190 L361 190 L361 194 L365 194 Z" stroke = "#ff7900" stroke-width = "1" fill = "#ff7900" />	<path d = "M374 194 L374 190 L370 190 L370 194 L374 194 Z" stroke = "#ff7900" stroke-width = "1" fill = "#ff7900" />	<path d = "M383 194 L383 190 L379 190 L379 194 L383 194 Z" stroke = "#ff7900" stroke-width = "1" fill = "#ff7900" />	<path d = "M374 185 L374 181 L370 181 L370 185 L374 185 Z" stroke = "#ff7900" stroke-width = "1" fill = "#ff7900" />	<path d = "M374 176 L374 172 L370 172 L370 176 L374 176 Z" stroke = "#ff7900" stroke-width = "1" fill = "#ff7900" />	<path d = "M374 167 L374 163 L370 163 L370 167 L374 167 Z" stroke = "#ff7900" stroke-width = "1" fill = "#ff7900" />	<path d = "M374 158 L374 154 L370 154 L370 158 L374 158 Z" stroke = "#ff7900" stroke-width = "1" fill = "#ff7900" />	<path d = "M374 149 L374 145 L370 145 L370 149 L374 149 Z" stroke = "#ff7900" stroke-width = "1" fill = "#ff7900" />	<path d = "M374 140 L374 136 L370 136 L370 140 L374 140 Z" stroke = "#ff7900" stroke-width = "1" fill = "#ff7900" />	<path d = "M365 140 L365 136 L361 136 L361 140 L365 140 Z" stroke = "#ff7900" stroke-width = "1" fill = "#ff7900" />	<path d = "M383 140 L383 136 L379 136 L379 140 L383 140 Z" stroke = "#ff7900" stroke-width = "1" fill = "#ff7900" />	<path d = "M410 194 L410 190 L406 190 L406 194 L410 194 Z" stroke = "#ff7900" stroke-width = "1" fill = "#ff7900" />	<path d = "M410 185 L410 181 L406 181 L406 185 L410 185 Z" stroke = "#ff7900" stroke-width = "1" fill = "#ff7900" />	<path d = "M410 176 L410 172 L406 172 L406 176 L410 176 Z" stroke = "#ff7900" stroke-width = "1" fill = "#ff7900" />	<path d = "M410 167 L410 163 L406 163 L406 167 L410 167 Z" stroke = "#ff7900" stroke-width = "1" fill = "#ff7900" />	<path d = "M410 158 L410 154 L406 154 L406 158 L410 158 Z" stroke = "#ff7900" stroke-width = "1" fill = "#ff7900" />	<path d = "M410 149 L410 145 L406 145 L406 149 L410 149 Z" stroke = "#ff7900" stroke-width = "1" fill = "#ff7900" />	<path d = "M410 140 L410 136 L406 136 L406 140 L410 140 Z" stroke = "#ff7900" stroke-width = "1" fill = "#ff7900" />	<path d = "M419 158 L419 154 L415 154 L415 158 L419 158 Z" stroke = "#ff7900" stroke-width = "1" fill = "#ff7900" />	<path d = "M428 167 L428 163 L424 163 L424 167 L428 167 Z" stroke = "#ff7900" stroke-width = "1" fill = "#ff7900" />	<path d = "M437 176 L437 172 L433 172 L433 176 L437 176 Z" stroke = "#ff7900" stroke-width = "1" fill = "#ff7900" />	<path d = "M446 185 L446 181 L442 181 L442 185 L446 185 Z" stroke = "#ff7900" stroke-width = "1" fill = "#ff7900" />	<path d = "M446 194 L446 190 L442 190 L442 194 L446 194 Z" stroke = "#ff7900" stroke-width = "1" fill = "#ff7900" />	<path d = "M446 176 L446 172 L442 172 L442 176 L446 176 Z" stroke = "#ff7900" stroke-width = "1" fill = "#ff7900" />	<path d = "M446 167 L446 163 L442 163 L442 167 L446 167 Z" stroke = "#ff7900" stroke-width = "1" fill = "#ff7900" />	<path d = "M446 158 L446 154 L442 154 L442 158 L446 158 Z" stroke = "#ff7900" stroke-width = "1" fill = "#ff7900" />	<path d = "M446 149 L446 145 L442 145 L442 149 L446 149 Z" stroke = "#ff7900" stroke-width = "1" fill = "#ff7900" />	<path d = "M446 140 L446 136 L442 136 L442 140 L446 140 Z" stroke = "#ff7900" stroke-width = "1" fill = "#ff7900" />	<path d = "M140 500 L140 496 L136 496 L136 500 L140 500 Z" stroke = "#ff7900" stroke-width = "1" fill = "#ff7900" />	<path d = "M140 491 L140 487 L136 487 L136 491 L140 491 Z" stroke = "#ff7900" stroke-width = "1" fill = "#ff7900" />	<path d = "M140 482 L140 478 L136 478 L136 482 L140 482 Z" stroke = "#ff7900" stroke-width = "1" fill = "#ff7900" />	<path d = "M140 473 L140 469 L136 469 L136 473 L140 473 Z" stroke = "#ff7900" stroke-width = "1" fill = "#ff7900" />	<path d = "M140 464 L140 460 L136 460 L136 464 L140 464 Z" stroke = "#ff7900" stroke-width = "1" fill = "#ff7900" />	<path d = "M140 455 L140 451 L136 451 L136 455 L140 455 Z" stroke = "#ff7900" stroke-width = "1" fill = "#ff7900" />	<path d = "M140 446 L140 442 L136 442 L136 446 L140 446 Z" stroke = "#ff7900" stroke-width = "1" fill = "#ff7900" />	<path d = "M149 446 L149 442 L145 442 L145 446 L149 446 Z" stroke = "#ff7900" stroke-width = "1" fill = "#ff7900" />	<path d = "M158 446 L158 442 L154 442 L154 446 L158 446 Z" stroke = "#ff7900" stroke-width = "1" fill = "#ff7900" />	<path d = "M167 455 L167 451 L163 451 L163 455 L167 455 Z" stroke = "#ff7900" stroke-width = "1" fill = "#ff7900" />	<path d = "M176 464 L176 460 L172 460 L172 464 L176 464 Z" stroke = "#ff7900" stroke-width = "1" fill = "#ff7900" />	<path d = "M176 473 L176 469 L172 469 L172 473 L176 473 Z" stroke = "#ff7900" stroke-width = "1" fill = "#ff7900" />	<path d = "M176 482 L176 478 L172 478 L172 482 L176 482 Z" stroke = "#ff7900" stroke-width = "1" fill = "#ff7900" />	<path d = "M167 491 L167 487 L163 487 L163 491 L167 491 Z" stroke = "#ff7900" stroke-width = "1" fill = "#ff7900" />	<path d = "M158 500 L158 496 L154 496 L154 500 L158 500 Z" stroke = "#ff7900" stroke-width = "1" fill = "#ff7900" />	<path d = "M149 500 L149 496 L145 496 L145 500 L149 500 Z" stroke = "#ff7900" stroke-width = "1" fill = "#ff7900" />	<path d = "M194 491 L194 487 L190 487 L190 491 L194 491 Z" stroke = "#ff7900" stroke-width = "1" fill = "#ff7900" />	<path d = "M194 482 L194 478 L190 478 L190 482 L194 482 Z" stroke = "#ff7900" stroke-width = "1" fill = "#ff7900" />	<path d = "M194 473 L194 469 L190 469 L190 473 L194 473 Z" stroke = "#ff7900" stroke-width = "1" fill = "#ff7900" />	<path d = "M194 464 L194 460 L190 460 L190 464 L194 464 Z" stroke = "#ff7900" stroke-width = "1" fill = "#ff7900" />	<path d = "M194 455 L194 451 L190 451 L190 455 L194 455 Z" stroke = "#ff7900" stroke-width = "1" fill = "#ff7900" />	<path d = "M203 446 L203 442 L199 442 L199 446 L203 446 Z" stroke = "#ff7900" stroke-width = "1" fill = "#ff7900" />	<path d = "M212 446 L212 442 L208 442 L208 446 L212 446 Z" stroke = "#ff7900" stroke-width = "1" fill = "#ff7900" />	<path d = "M221 446 L221 442 L217 442 L217 446 L221 446 Z" stroke = "#ff7900" stroke-width = "1" fill = "#ff7900" />	<path d = "M230 455 L230 451 L226 451 L226 455 L230 455 Z" stroke = "#ff7900" stroke-width = "1" fill = "#ff7900" />	<path d = "M230 464 L230 460 L226 460 L226 464 L230 464 Z" stroke = "#ff7900" stroke-width = "1" fill = "#ff7900" />	<path d = "M230 473 L230 469 L226 469 L226 473 L230 473 Z" stroke = "#ff7900" stroke-width = "1" fill = "#ff7900" />	<path d = "M230 482 L230 478 L226 478 L226 482 L230 482 Z" stroke = "#ff7900" stroke-width = "1" fill = "#ff7900" />	<path d = "M230 491 L230 487 L226 487 L226 491 L230 491 Z" stroke = "#ff7900" stroke-width = "1" fill = "#ff7900" />	<path d = "M221 500 L221 496 L217 496 L217 500 L221 500 Z" stroke = "#ff7900" stroke-width = "1" fill = "#ff7900" />	<path d = "M212 500 L212 496 L208 496 L208 500 L212 500 Z" stroke = "#ff7900" stroke-width = "1" fill = "#ff7900" />	<path d = "M203 500 L203 496 L199 496 L199 500 L203 500 Z" stroke = "#ff7900" stroke-width = "1" fill = "#ff7900" />	<path d = "M248 500 L248 496 L244 496 L244 500 L248 500 Z" stroke = "#ff7900" stroke-width = "1" fill = "#ff7900" />	<path d = "M248 491 L248 487 L244 487 L244 491 L248 491 Z" stroke = "#ff7900" stroke-width = "1" fill = "#ff7900" />	<path d = "M248 482 L248 478 L244 478 L244 482 L248 482 Z" stroke = "#ff7900" stroke-width = "1" fill = "#ff7900" />	<path d = "M248 473 L248 469 L244 469 L244 473 L248 473 Z" stroke = "#ff7900" stroke-width = "1" fill = "#ff7900" />	<path d = "M248 464 L248 460 L244 460 L244 464 L248 464 Z" stroke = "#ff7900" stroke-width = "1" fill = "#ff7900" />	<path d = "M248 455 L248 451 L244 451 L244 455 L248 455 Z" stroke = "#ff7900" stroke-width = "1" fill = "#ff7900" />	<path d = "M248 446 L248 442 L244 442 L244 446 L248 446 Z" stroke = "#ff7900" stroke-width = "1" fill = "#ff7900" />	<path d = "M257 464 L257 460 L253 460 L253 464 L257 464 Z" stroke = "#ff7900" stroke-width = "1" fill = "#ff7900" />	<path d = "M266 473 L266 469 L262 469 L262 473 L266 473 Z" stroke = "#ff7900" stroke-width = "1" fill = "#ff7900" />	<path d = "M275 482 L275 478 L271 478 L271 482 L275 482 Z" stroke = "#ff7900" stroke-width = "1" fill = "#ff7900" />	<path d = "M284 491 L284 487 L280 487 L280 491 L284 491 Z" stroke = "#ff7900" stroke-width = "1" fill = "#ff7900" />	<path d = "M284 500 L284 496 L280 496 L280 500 L284 500 Z" stroke = "#ff7900" stroke-width = "1" fill = "#ff7900" />	<path d = "M284 482 L284 478 L280 478 L280 482 L284 482 Z" stroke = "#ff7900" stroke-width = "1" fill = "#ff7900" />	<path d = "M284 473 L284 469 L280 469 L280 473 L284 473 Z" stroke = "#ff7900" stroke-width = "1" fill = "#ff7900" />	<path d = "M284 464 L284 460 L280 460 L280 464 L284 464 Z" stroke = "#ff7900" stroke-width = "1" fill = "#ff7900" />	<path d = "M284 455 L284 451 L280 451 L280 455 L284 455 Z" stroke = "#ff7900" stroke-width = "1" fill = "#ff7900" />	<path d = "M284 446 L284 442 L280 442 L280 446 L284 446 Z" stroke = "#ff7900" stroke-width = "1" fill = "#ff7900" />	<path d = "M302 491 L302 487 L298 487 L298 491 L302 491 Z" stroke = "#ff7900" stroke-width = "1" fill = "#ff7900" />	<path d = "M302 482 L302 478 L298 478 L298 482 L302 482 Z" stroke = "#ff7900" stroke-width = "1" fill = "#ff7900" />	<path d = "M302 473 L302 469 L298 469 L298 473 L302 473 Z" stroke = "#ff7900" stroke-width = "1" fill = "#ff7900" />	<path d = "M302 464 L302 460 L298 460 L298 464 L302 464 Z" stroke = "#ff7900" stroke-width = "1" fill = "#ff7900" />	<path d = "M302 455 L302 451 L298 451 L298 455 L302 455 Z" stroke = "#ff7900" stroke-width = "1" fill = "#ff7900" />	<path d = "M302 446 L302 442 L298 442 L298 446 L302 446 Z" stroke = "#ff7900" stroke-width = "1" fill = "#ff7900" />	<path d = "M311 500 L311 496 L307 496 L307 500 L311 500 Z" stroke = "#ff7900" stroke-width = "1" fill = "#ff7900" />	<path d = "M320 500 L320 496 L316 496 L316 500 L320 500 Z" stroke = "#ff7900" stroke-width = "1" fill = "#ff7900" />	<path d = "M329 500 L329 496 L325 496 L325 500 L329 500 Z" stroke = "#ff7900" stroke-width = "1" fill = "#ff7900" />	<path d = "M338 491 L338 487 L334 487 L334 491 L338 491 Z" stroke = "#ff7900" stroke-width = "1" fill = "#ff7900" />	<path d = "M338 482 L338 478 L334 478 L334 482 L338 482 Z" stroke = "#ff7900" stroke-width = "1" fill = "#ff7900" />	<path d = "M338 473 L338 469 L334 469 L334 473 L338 473 Z" stroke = "#ff7900" stroke-width = "1" fill = "#ff7900" />	<path d = "M338 464 L338 460 L334 460 L334 464 L338 464 Z" stroke = "#ff7900" stroke-width = "1" fill = "#ff7900" />	<path d = "M338 455 L338 451 L334 451 L334 455 L338 455 Z" stroke = "#ff7900" stroke-width = "1" fill = "#ff7900" />	<path d = "M338 446 L338 442 L334 442 L334 446 L338 446 Z" stroke = "#ff7900" stroke-width = "1" fill = "#ff7900" />	<path d = "M356 446 L356 442 L352 442 L352 446 L356 446 Z" stroke = "#ff7900" stroke-width = "1" fill = "#ff7900" />	<path d = "M365 446 L365 442 L361 442 L361 446 L365 446 Z" stroke = "#ff7900" stroke-width = "1" fill = "#ff7900" />	<path d = "M374 446 L374 442 L370 442 L370 446 L374 446 Z" stroke = "#ff7900" stroke-width = "1" fill = "#ff7900" />	<path d = "M383 446 L383 442 L379 442 L379 446 L383 446 Z" stroke = "#ff7900" stroke-width = "1" fill = "#ff7900" />	<path d = "M392 446 L392 442 L388 442 L388 446 L392 446 Z" stroke = "#ff7900" stroke-width = "1" fill = "#ff7900" />	<path d = "M374 455 L374 451 L370 451 L370 455 L374 455 Z" stroke = "#ff7900" stroke-width = "1" fill = "#ff7900" />	<path d = "M374 464 L374 460 L370 460 L370 464 L374 464 Z" stroke = "#ff7900" stroke-width = "1" fill = "#ff7900" />	<path d = "M374 473 L374 469 L370 469 L370 473 L374 473 Z" stroke = "#ff7900" stroke-width = "1" fill = "#ff7900" />	<path d = "M374 482 L374 478 L370 478 L370 482 L374 482 Z" stroke = "#ff7900" stroke-width = "1" fill = "#ff7900" />	<path d = "M374 491 L374 487 L370 487 L370 491 L374 491 Z" stroke = "#ff7900" stroke-width = "1" fill = "#ff7900" />	<path d = "M374 500 L374 496 L370 496 L370 500 L374 500 Z" stroke = "#ff7900" stroke-width = "1" fill = "#ff7900" />	<path d = "M410 491 L410 487 L406 487 L406 491 L410 491 Z" stroke = "#ff7900" stroke-width = "1" fill = "#ff7900" />	<path d = "M419 500 L419 496 L415 496 L415 500 L419 500 Z" stroke = "#ff7900" stroke-width = "1" fill = "#ff7900" />	<path d = "M428 500 L428 496 L424 496 L424 500 L428 500 Z" stroke = "#ff7900" stroke-width = "1" fill = "#ff7900" />	<path d = "M437 500 L437 496 L433 496 L433 500 L437 500 Z" stroke = "#ff7900" stroke-width = "1" fill = "#ff7900" />	<path d = "M446 491 L446 487 L442 487 L442 491 L446 491 Z" stroke = "#ff7900" stroke-width = "1" fill = "#ff7900" />	<path d = "M446 482 L446 478 L442 478 L442 482 L446 482 Z" stroke = "#ff7900" stroke-width = "1" fill = "#ff7900" />	<path d = "M437 473 L437 469 L433 469 L433 473 L437 473 Z" stroke = "#ff7900" stroke-width = "1" fill = "#ff7900" />	<path d = "M428 473 L428 469 L424 469 L424 473 L428 473 Z" stroke = "#ff7900" stroke-width = "1" fill = "#ff7900" />	<path d = "M419 473 L419 469 L415 469 L415 473 L419 473 Z" stroke = "#ff7900" stroke-width = "1" fill = "#ff7900" />	<path d = "M410 464 L410 460 L406 460 L406 464 L410 464 Z" stroke = "#ff7900" stroke-width = "1" fill = "#ff7900" />	<path d = "M410 455 L410 451 L406 451 L406 455 L410 455 Z" stroke = "#ff7900" stroke-width = "1" fill = "#ff7900" />	<path d = "M419 446 L419 442 L415 442 L415 446 L419 446 Z" stroke = "#ff7900" stroke-width = "1" fill = "#ff7900" />	<path d = "M428 446 L428 442 L424 442 L424 446 L428 446 Z" stroke = "#ff7900" stroke-width = "1" fill = "#ff7900" />	<path d = "M437 446 L437 442 L433 442 L433 446 L437 446 Z" stroke = "#ff7900" stroke-width = "1" fill = "#ff7900" />	<path d = "M446 455 L446 451 L442 451 L442 455 L446 455 Z" stroke = "#ff7900" stroke-width = "1" fill = "#ff7900" /></svg>