<svg width="600" height="600" viewbox = "0 0 600 600"  xmlns="http://www.w3.org/2000/svg">
<!--<json>{
  "shapes": [],
  "glyph": "0325,0505,0505,0502,0502,0502,0502,0502,0504,0502,0502,0504,0502,0504,0502,0502,0504,0502,0504,0502,0500,0500,0500,0506,0500,0500,0500,0500,0500,0500,0500,0500,0500,0503,0503,0501,0501,0501,0501,0501,0503,0501,0503,0503,0501,0503,0503,0501,0503,0503,0501,0503,0503,0501,0503,0503,0501,0503,0501,0503,0503,0501,0502,0502,0502,0500,0502,0502,0500,0502,0502,0500,0502,0500,0502,0502,0502,0500,0502,0500,0502,0500,0502,0502,0500,0507,0504,0503,0503,0503,0503,0503,0503,0503,0503,0503,0505,0503,0503,0503,0505,0503,0503,0505,0503,0503,0507,0501,0501,0501,0507,0501,0501,0507,0501,0501,0501,0501,0506,0501,0502,0502,0502,0502,0502,0502,0502,0504,0504,0504,0504,0504,0504,0504,0504,0504,0504,0504,0504,0504,0504,0504,0504,0502,0502,0502,0504,0502,0500,0500,0507,0500,0500,0507,0500,0507,0500,0503,0504,0503,0503,0504,0503,0503,0503,0503,0503,0503,0503,0503,0500,0500,0503,0501,0501,0501,0501,0502,0502,0501,0502,0501,0502,0502,0501,0502,0502,0501,0502,0502,0501,0502,0500,0503,0500,0503,0500,0503,0503,0500,0503,0503,0500,0503,0503,0500,0503,0501,0501,0503,0501,0502,0501,0501,0506,0501,0506,0501,0502,0502,0505,0502,0502,0502,0502,0502,0502,0507,0507,0507,0507,0507,0504,0507,0507,0507,0504,0507,0507,0504,0504,0507,0504,0507,0320,0505,0507,0501,0501,0506,0501,0501,0506,0501,0505,0502,0505,0502,0502,0502,0502,0502,0506,0506,0504,0504,0506,0504,0506,0506,0504,0506,0506,0504,0504,0504,0504,0506,0504,0506,0504,0504,0502,0502,0502,0502,0505,0502,0502,0505,0502,0505,0502,0502,0505,0502,0501,0501,0506,0501,0501,0501,0501,0501,0504,0504,0504,0504,0504,0504,0504,0504,0504,0507,0504,0507,0500,0507,0500,0503,0504,0503,0503,0504,0503,0503,0503,0503,0503,0503,0503,0505,0503,0503,0505,0505,0505,0505,0505,0505,0505,0505,0505,0505,0505,0505,0505,0505,0505,0505,0505,0505,0505,0505,0505,0505,0505,0505,0505,0505,0505,0505,0505,0505,0505,0505,0505,0505,0505,0506,0506,0506,0506,0506,0506,0506,0506,0505,0505,0506,0506,0506,0506,0506,0506,0506,0506,0506,0506,01122,01145,01114,01145,01141,01146,0505,0505,0505,0505,0505,0505,0505,0505,0505,0505,0506,0506,0506,0506,0506,0506,0506,0506,0506,0506,0506,0506,0506,0506,0506,0506,0506,0506,0506,0506,0506,0506,0506,0506,0506,0506,0506,0506,0506,0506,0506,0506,0506,0506,01056,01163,01151,01164,01145,0504,0504,0504,0504,0504,0504,0504,0504,0504,0504,0504,0504,0504,0504,0504,0504,0504,0504,0504,0504,0504,0504,0504,0506,0506,0506,0506,0506,0506,0506,0506,0506,0506,0506,0506,0506,0506,",
  "x0": 300,
  "y0": 300,
  "unit": 72,
  "width": 600,
  "height": 600,
  "style": {
    "color0": "black",
    "fill0": "black",
    "line0": 1,
    "color1": "black",
    "fill1": "black",
    "line1": 5,
    "color2": "red",
    "fill2": "red",
    "line2": 1,
    "color3": "#FF7900",
    "fill3": "#FF7900",
    "line3": 1,
    "color4": "yellow",
    "fill4": "yellow",
    "line4": 1,
    "color5": "green",
    "fill5": "green",
    "line5": 1,
    "color6": "blue",
    "fill6": "blue",
    "line6": 1,
    "color7": "purple",
    "fill7": "purple",
    "line7": 1
  }
}</json>-->	<path d = "M293 320 L293 316 L289 316 L289 320 L293 320 Z" stroke = "#008000" stroke-width = "1" fill = "#008000" />	<path d = "M284 320 L284 316 L280 316 L280 320 L284 320 Z" stroke = "#008000" stroke-width = "1" fill = "#008000" />	<path d = "M275 320 L275 316 L271 316 L271 320 L275 320 Z" stroke = "#008000" stroke-width = "1" fill = "#008000" />	<path d = "M266 320 L266 316 L262 316 L262 320 L266 320 Z" stroke = "#008000" stroke-width = "1" fill = "#008000" />	<path d = "M257 320 L257 316 L253 316 L253 320 L257 320 Z" stroke = "#008000" stroke-width = "1" fill = "#008000" />	<path d = "M248 311 L248 307 L244 307 L244 311 L248 311 Z" stroke = "#008000" stroke-width = "1" fill = "#008000" />	<path d = "M239 311 L239 307 L235 307 L235 311 L239 311 Z" stroke = "#008000" stroke-width = "1" fill = "#008000" />	<path d = "M230 302 L230 298 L226 298 L226 302 L230 302 Z" stroke = "#008000" stroke-width = "1" fill = "#008000" />	<path d = "M221 293 L221 289 L217 289 L217 293 L221 293 Z" stroke = "#008000" stroke-width = "1" fill = "#008000" />	<path d = "M212 293 L212 289 L208 289 L208 293 L212 293 Z" stroke = "#008000" stroke-width = "1" fill = "#008000" />	<path d = "M203 284 L203 280 L199 280 L199 284 L203 284 Z" stroke = "#008000" stroke-width = "1" fill = "#008000" />	<path d = "M194 275 L194 271 L190 271 L190 275 L194 275 Z" stroke = "#008000" stroke-width = "1" fill = "#008000" />	<path d = "M194 266 L194 262 L190 262 L190 266 L194 266 Z" stroke = "#008000" stroke-width = "1" fill = "#008000" />	<path d = "M194 257 L194 253 L190 253 L190 257 L194 257 Z" stroke = "#008000" stroke-width = "1" fill = "#008000" />	<path d = "M194 248 L194 244 L190 244 L190 248 L194 248 Z" stroke = "#008000" stroke-width = "1" fill = "#008000" />	<path d = "M185 239 L185 235 L181 235 L181 239 L185 239 Z" stroke = "#008000" stroke-width = "1" fill = "#008000" />	<path d = "M185 230 L185 226 L181 226 L181 230 L185 230 Z" stroke = "#008000" stroke-width = "1" fill = "#008000" />	<path d = "M185 221 L185 217 L181 217 L181 221 L185 221 Z" stroke = "#008000" stroke-width = "1" fill = "#008000" />	<path d = "M185 212 L185 208 L181 208 L181 212 L185 212 Z" stroke = "#008000" stroke-width = "1" fill = "#008000" />	<path d = "M185 203 L185 199 L181 199 L181 203 L185 203 Z" stroke = "#008000" stroke-width = "1" fill = "#008000" />	<path d = "M185 194 L185 190 L181 190 L181 194 L185 194 Z" stroke = "#008000" stroke-width = "1" fill = "#008000" />	<path d = "M185 185 L185 181 L181 181 L181 185 L185 185 Z" stroke = "#008000" stroke-width = "1" fill = "#008000" />	<path d = "M185 176 L185 172 L181 172 L181 176 L185 176 Z" stroke = "#008000" stroke-width = "1" fill = "#008000" />	<path d = "M185 167 L185 163 L181 163 L181 167 L185 167 Z" stroke = "#008000" stroke-width = "1" fill = "#008000" />	<path d = "M194 167 L194 163 L190 163 L190 167 L194 167 Z" stroke = "#008000" stroke-width = "1" fill = "#008000" />	<path d = "M203 167 L203 163 L199 163 L199 167 L203 167 Z" stroke = "#008000" stroke-width = "1" fill = "#008000" />	<path d = "M203 176 L203 172 L199 172 L199 176 L203 176 Z" stroke = "#008000" stroke-width = "1" fill = "#008000" />	<path d = "M203 185 L203 181 L199 181 L199 185 L203 185 Z" stroke = "#008000" stroke-width = "1" fill = "#008000" />	<path d = "M203 194 L203 190 L199 190 L199 194 L203 194 Z" stroke = "#008000" stroke-width = "1" fill = "#008000" />	<path d = "M203 203 L203 199 L199 199 L199 203 L203 203 Z" stroke = "#008000" stroke-width = "1" fill = "#008000" />	<path d = "M203 212 L203 208 L199 208 L199 212 L203 212 Z" stroke = "#008000" stroke-width = "1" fill = "#008000" />	<path d = "M212 212 L212 208 L208 208 L208 212 L212 212 Z" stroke = "#008000" stroke-width = "1" fill = "#008000" />	<path d = "M212 221 L212 217 L208 217 L208 221 L212 221 Z" stroke = "#008000" stroke-width = "1" fill = "#008000" />	<path d = "M221 221 L221 217 L217 217 L217 221 L221 221 Z" stroke = "#008000" stroke-width = "1" fill = "#008000" />	<path d = "M230 221 L230 217 L226 217 L226 221 L230 221 Z" stroke = "#008000" stroke-width = "1" fill = "#008000" />	<path d = "M230 230 L230 226 L226 226 L226 230 L230 230 Z" stroke = "#008000" stroke-width = "1" fill = "#008000" />	<path d = "M239 230 L239 226 L235 226 L235 230 L239 230 Z" stroke = "#008000" stroke-width = "1" fill = "#008000" />	<path d = "M248 230 L248 226 L244 226 L244 230 L248 230 Z" stroke = "#008000" stroke-width = "1" fill = "#008000" />	<path d = "M248 239 L248 235 L244 235 L244 239 L248 239 Z" stroke = "#008000" stroke-width = "1" fill = "#008000" />	<path d = "M257 239 L257 235 L253 235 L253 239 L257 239 Z" stroke = "#008000" stroke-width = "1" fill = "#008000" />	<path d = "M266 239 L266 235 L262 235 L262 239 L266 239 Z" stroke = "#008000" stroke-width = "1" fill = "#008000" />	<path d = "M266 248 L266 244 L262 244 L262 248 L266 248 Z" stroke = "#008000" stroke-width = "1" fill = "#008000" />	<path d = "M275 248 L275 244 L271 244 L271 248 L275 248 Z" stroke = "#008000" stroke-width = "1" fill = "#008000" />	<path d = "M284 248 L284 244 L280 244 L280 248 L284 248 Z" stroke = "#008000" stroke-width = "1" fill = "#008000" />	<path d = "M284 257 L284 253 L280 253 L280 257 L284 257 Z" stroke = "#008000" stroke-width = "1" fill = "#008000" />	<path d = "M293 257 L293 253 L289 253 L289 257 L293 257 Z" stroke = "#008000" stroke-width = "1" fill = "#008000" />	<path d = "M302 257 L302 253 L298 253 L298 257 L302 257 Z" stroke = "#008000" stroke-width = "1" fill = "#008000" />	<path d = "M302 266 L302 262 L298 262 L298 266 L302 266 Z" stroke = "#008000" stroke-width = "1" fill = "#008000" />	<path d = "M311 266 L311 262 L307 262 L307 266 L311 266 Z" stroke = "#008000" stroke-width = "1" fill = "#008000" />	<path d = "M311 275 L311 271 L307 271 L307 275 L311 275 Z" stroke = "#008000" stroke-width = "1" fill = "#008000" />	<path d = "M320 275 L320 271 L316 271 L316 275 L320 275 Z" stroke = "#008000" stroke-width = "1" fill = "#008000" />	<path d = "M329 275 L329 271 L325 271 L325 275 L329 275 Z" stroke = "#008000" stroke-width = "1" fill = "#008000" />	<path d = "M329 284 L329 280 L325 280 L325 284 L329 284 Z" stroke = "#008000" stroke-width = "1" fill = "#008000" />	<path d = "M320 284 L320 280 L316 280 L316 284 L320 284 Z" stroke = "#008000" stroke-width = "1" fill = "#008000" />	<path d = "M311 284 L311 280 L307 280 L307 284 L311 284 Z" stroke = "#008000" stroke-width = "1" fill = "#008000" />	<path d = "M302 284 L302 280 L298 280 L298 284 L302 284 Z" stroke = "#008000" stroke-width = "1" fill = "#008000" />	<path d = "M302 275 L302 271 L298 271 L298 275 L302 275 Z" stroke = "#008000" stroke-width = "1" fill = "#008000" />	<path d = "M293 275 L293 271 L289 271 L289 275 L293 275 Z" stroke = "#008000" stroke-width = "1" fill = "#008000" />	<path d = "M284 275 L284 271 L280 271 L280 275 L284 275 Z" stroke = "#008000" stroke-width = "1" fill = "#008000" />	<path d = "M284 266 L284 262 L280 262 L280 266 L284 266 Z" stroke = "#008000" stroke-width = "1" fill = "#008000" />	<path d = "M275 266 L275 262 L271 262 L271 266 L275 266 Z" stroke = "#008000" stroke-width = "1" fill = "#008000" />	<path d = "M266 266 L266 262 L262 262 L262 266 L266 266 Z" stroke = "#008000" stroke-width = "1" fill = "#008000" />	<path d = "M266 257 L266 253 L262 253 L262 257 L266 257 Z" stroke = "#008000" stroke-width = "1" fill = "#008000" />	<path d = "M257 257 L257 253 L253 253 L253 257 L257 257 Z" stroke = "#008000" stroke-width = "1" fill = "#008000" />	<path d = "M257 248 L257 244 L253 244 L253 248 L257 248 Z" stroke = "#008000" stroke-width = "1" fill = "#008000" />	<path d = "M248 248 L248 244 L244 244 L244 248 L248 248 Z" stroke = "#008000" stroke-width = "1" fill = "#008000" />	<path d = "M239 248 L239 244 L235 244 L235 248 L239 248 Z" stroke = "#008000" stroke-width = "1" fill = "#008000" />	<path d = "M230 248 L230 244 L226 244 L226 248 L230 248 Z" stroke = "#008000" stroke-width = "1" fill = "#008000" />	<path d = "M230 239 L230 235 L226 235 L226 239 L230 239 Z" stroke = "#008000" stroke-width = "1" fill = "#008000" />	<path d = "M221 239 L221 235 L217 235 L217 239 L221 239 Z" stroke = "#008000" stroke-width = "1" fill = "#008000" />	<path d = "M221 230 L221 226 L217 226 L217 230 L221 230 Z" stroke = "#008000" stroke-width = "1" fill = "#008000" />	<path d = "M212 230 L212 226 L208 226 L208 230 L212 230 Z" stroke = "#008000" stroke-width = "1" fill = "#008000" />	<path d = "M212 221 L212 217 L208 217 L208 221 L212 221 Z" stroke = "#008000" stroke-width = "1" fill = "#008000" />	<path d = "M203 221 L203 217 L199 217 L199 221 L203 221 Z" stroke = "#008000" stroke-width = "1" fill = "#008000" />	<path d = "M194 221 L194 217 L190 217 L190 221 L194 221 Z" stroke = "#008000" stroke-width = "1" fill = "#008000" />	<path d = "M194 212 L194 208 L190 208 L190 212 L194 212 Z" stroke = "#008000" stroke-width = "1" fill = "#008000" />	<path d = "M212 203 L212 199 L208 199 L208 203 L212 203 Z" stroke = "#008000" stroke-width = "1" fill = "#008000" />	<path d = "M221 203 L221 199 L217 199 L217 203 L221 203 Z" stroke = "#008000" stroke-width = "1" fill = "#008000" />	<path d = "M230 203 L230 199 L226 199 L226 203 L230 203 Z" stroke = "#008000" stroke-width = "1" fill = "#008000" />	<path d = "M239 203 L239 199 L235 199 L235 203 L239 203 Z" stroke = "#008000" stroke-width = "1" fill = "#008000" />	<path d = "M248 203 L248 199 L244 199 L244 203 L248 203 Z" stroke = "#008000" stroke-width = "1" fill = "#008000" />	<path d = "M257 203 L257 199 L253 199 L253 203 L257 203 Z" stroke = "#008000" stroke-width = "1" fill = "#008000" />	<path d = "M266 203 L266 199 L262 199 L262 203 L266 203 Z" stroke = "#008000" stroke-width = "1" fill = "#008000" />	<path d = "M275 203 L275 199 L271 199 L271 203 L275 203 Z" stroke = "#008000" stroke-width = "1" fill = "#008000" />	<path d = "M284 203 L284 199 L280 199 L280 203 L284 203 Z" stroke = "#008000" stroke-width = "1" fill = "#008000" />	<path d = "M293 212 L293 208 L289 208 L289 212 L293 212 Z" stroke = "#008000" stroke-width = "1" fill = "#008000" />	<path d = "M302 212 L302 208 L298 208 L298 212 L302 212 Z" stroke = "#008000" stroke-width = "1" fill = "#008000" />	<path d = "M311 212 L311 208 L307 208 L307 212 L311 212 Z" stroke = "#008000" stroke-width = "1" fill = "#008000" />	<path d = "M320 221 L320 217 L316 217 L316 221 L320 221 Z" stroke = "#008000" stroke-width = "1" fill = "#008000" />	<path d = "M329 221 L329 217 L325 217 L325 221 L329 221 Z" stroke = "#008000" stroke-width = "1" fill = "#008000" />	<path d = "M338 230 L338 226 L334 226 L334 230 L338 230 Z" stroke = "#008000" stroke-width = "1" fill = "#008000" />	<path d = "M347 230 L347 226 L343 226 L343 230 L347 230 Z" stroke = "#008000" stroke-width = "1" fill = "#008000" />	<path d = "M356 239 L356 235 L352 235 L352 239 L356 239 Z" stroke = "#008000" stroke-width = "1" fill = "#008000" />	<path d = "M356 248 L356 244 L352 244 L352 248 L356 248 Z" stroke = "#008000" stroke-width = "1" fill = "#008000" />	<path d = "M356 257 L356 253 L352 253 L352 257 L356 257 Z" stroke = "#008000" stroke-width = "1" fill = "#008000" />	<path d = "M365 266 L365 262 L361 262 L361 266 L365 266 Z" stroke = "#008000" stroke-width = "1" fill = "#008000" />	<path d = "M365 275 L365 271 L361 271 L361 275 L365 275 Z" stroke = "#008000" stroke-width = "1" fill = "#008000" />	<path d = "M374 284 L374 280 L370 280 L370 284 L374 284 Z" stroke = "#008000" stroke-width = "1" fill = "#008000" />	<path d = "M374 293 L374 289 L370 289 L370 293 L374 293 Z" stroke = "#008000" stroke-width = "1" fill = "#008000" />	<path d = "M374 302 L374 298 L370 298 L370 302 L374 302 Z" stroke = "#008000" stroke-width = "1" fill = "#008000" />	<path d = "M374 311 L374 307 L370 307 L370 311 L374 311 Z" stroke = "#008000" stroke-width = "1" fill = "#008000" />	<path d = "M365 320 L365 316 L361 316 L361 320 L365 320 Z" stroke = "#008000" stroke-width = "1" fill = "#008000" />	<path d = "M356 320 L356 316 L352 316 L352 320 L356 320 Z" stroke = "#008000" stroke-width = "1" fill = "#008000" />	<path d = "M347 320 L347 316 L343 316 L343 320 L347 320 Z" stroke = "#008000" stroke-width = "1" fill = "#008000" />	<path d = "M338 320 L338 316 L334 316 L334 320 L338 320 Z" stroke = "#008000" stroke-width = "1" fill = "#008000" />	<path d = "M329 320 L329 316 L325 316 L325 320 L329 320 Z" stroke = "#008000" stroke-width = "1" fill = "#008000" />	<path d = "M320 320 L320 316 L316 316 L316 320 L320 320 Z" stroke = "#008000" stroke-width = "1" fill = "#008000" />	<path d = "M311 320 L311 316 L307 316 L307 320 L311 320 Z" stroke = "#008000" stroke-width = "1" fill = "#008000" />	<path d = "M302 320 L302 316 L298 316 L298 320 L302 320 Z" stroke = "#008000" stroke-width = "1" fill = "#008000" />	<path d = "M293 176 L293 172 L289 172 L289 176 L293 176 Z" stroke = "#008000" stroke-width = "1" fill = "#008000" />	<path d = "M284 176 L284 172 L280 172 L280 176 L284 176 Z" stroke = "#008000" stroke-width = "1" fill = "#008000" />	<path d = "M275 176 L275 172 L271 172 L271 176 L275 176 Z" stroke = "#008000" stroke-width = "1" fill = "#008000" />	<path d = "M266 167 L266 163 L262 163 L262 167 L266 167 Z" stroke = "#008000" stroke-width = "1" fill = "#008000" />	<path d = "M266 158 L266 154 L262 154 L262 158 L266 158 Z" stroke = "#008000" stroke-width = "1" fill = "#008000" />	<path d = "M266 149 L266 145 L262 145 L262 149 L266 149 Z" stroke = "#008000" stroke-width = "1" fill = "#008000" />	<path d = "M275 140 L275 136 L271 136 L271 140 L275 140 Z" stroke = "#008000" stroke-width = "1" fill = "#008000" />	<path d = "M275 131 L275 127 L271 127 L271 131 L275 131 Z" stroke = "#008000" stroke-width = "1" fill = "#008000" />	<path d = "M284 122 L284 118 L280 118 L280 122 L284 122 Z" stroke = "#008000" stroke-width = "1" fill = "#008000" />	<path d = "M293 113 L293 109 L289 109 L289 113 L293 113 Z" stroke = "#008000" stroke-width = "1" fill = "#008000" />	<path d = "M302 113 L302 109 L298 109 L298 113 L302 113 Z" stroke = "#008000" stroke-width = "1" fill = "#008000" />	<path d = "M311 104 L311 100 L307 100 L307 104 L311 104 Z" stroke = "#008000" stroke-width = "1" fill = "#008000" />	<path d = "M320 104 L320 100 L316 100 L316 104 L320 104 Z" stroke = "#008000" stroke-width = "1" fill = "#008000" />	<path d = "M329 95 L329 91 L325 91 L325 95 L329 95 Z" stroke = "#008000" stroke-width = "1" fill = "#008000" />	<path d = "M338 95 L338 91 L334 91 L334 95 L338 95 Z" stroke = "#008000" stroke-width = "1" fill = "#008000" />	<path d = "M347 95 L347 91 L343 91 L343 95 L347 95 Z" stroke = "#008000" stroke-width = "1" fill = "#008000" />	<path d = "M356 95 L356 91 L352 91 L352 95 L356 95 Z" stroke = "#008000" stroke-width = "1" fill = "#008000" />	<path d = "M365 95 L365 91 L361 91 L361 95 L365 95 Z" stroke = "#008000" stroke-width = "1" fill = "#008000" />	<path d = "M374 95 L374 91 L370 91 L370 95 L374 95 Z" stroke = "#008000" stroke-width = "1" fill = "#008000" />	<path d = "M383 95 L383 91 L379 91 L379 95 L383 95 Z" stroke = "#008000" stroke-width = "1" fill = "#008000" />	<path d = "M392 95 L392 91 L388 91 L388 95 L392 95 Z" stroke = "#008000" stroke-width = "1" fill = "#008000" />	<path d = "M392 86 L392 82 L388 82 L388 86 L392 86 Z" stroke = "#008000" stroke-width = "1" fill = "#008000" />	<path d = "M392 77 L392 73 L388 73 L388 77 L392 77 Z" stroke = "#008000" stroke-width = "1" fill = "#008000" />	<path d = "M401 77 L401 73 L397 73 L397 77 L401 77 Z" stroke = "#008000" stroke-width = "1" fill = "#008000" />	<path d = "M401 86 L401 82 L397 82 L397 86 L401 86 Z" stroke = "#008000" stroke-width = "1" fill = "#008000" />	<path d = "M401 95 L401 91 L397 91 L397 95 L401 95 Z" stroke = "#008000" stroke-width = "1" fill = "#008000" />	<path d = "M401 104 L401 100 L397 100 L397 104 L401 104 Z" stroke = "#008000" stroke-width = "1" fill = "#008000" />	<path d = "M401 113 L401 109 L397 109 L397 113 L401 113 Z" stroke = "#008000" stroke-width = "1" fill = "#008000" />	<path d = "M392 113 L392 109 L388 109 L388 113 L392 113 Z" stroke = "#008000" stroke-width = "1" fill = "#008000" />	<path d = "M383 113 L383 109 L379 109 L379 113 L383 113 Z" stroke = "#008000" stroke-width = "1" fill = "#008000" />	<path d = "M383 122 L383 118 L379 118 L379 122 L383 122 Z" stroke = "#008000" stroke-width = "1" fill = "#008000" />	<path d = "M374 122 L374 118 L370 118 L370 122 L374 122 Z" stroke = "#008000" stroke-width = "1" fill = "#008000" />	<path d = "M374 131 L374 127 L370 127 L370 131 L374 131 Z" stroke = "#008000" stroke-width = "1" fill = "#008000" />	<path d = "M365 131 L365 127 L361 127 L361 131 L365 131 Z" stroke = "#008000" stroke-width = "1" fill = "#008000" />	<path d = "M356 131 L356 127 L352 127 L352 131 L356 131 Z" stroke = "#008000" stroke-width = "1" fill = "#008000" />	<path d = "M356 140 L356 136 L352 136 L352 140 L356 140 Z" stroke = "#008000" stroke-width = "1" fill = "#008000" />	<path d = "M347 140 L347 136 L343 136 L343 140 L347 140 Z" stroke = "#008000" stroke-width = "1" fill = "#008000" />	<path d = "M338 140 L338 136 L334 136 L334 140 L338 140 Z" stroke = "#008000" stroke-width = "1" fill = "#008000" />	<path d = "M338 149 L338 145 L334 145 L334 149 L338 149 Z" stroke = "#008000" stroke-width = "1" fill = "#008000" />	<path d = "M329 149 L329 145 L325 145 L325 149 L329 149 Z" stroke = "#008000" stroke-width = "1" fill = "#008000" />	<path d = "M320 149 L320 145 L316 145 L316 149 L320 149 Z" stroke = "#008000" stroke-width = "1" fill = "#008000" />	<path d = "M320 158 L320 154 L316 154 L316 158 L320 158 Z" stroke = "#008000" stroke-width = "1" fill = "#008000" />	<path d = "M311 158 L311 154 L307 154 L307 158 L311 158 Z" stroke = "#008000" stroke-width = "1" fill = "#008000" />	<path d = "M311 149 L311 145 L307 145 L307 149 L311 149 Z" stroke = "#008000" stroke-width = "1" fill = "#008000" />	<path d = "M320 149 L320 145 L316 145 L316 149 L320 149 Z" stroke = "#008000" stroke-width = "1" fill = "#008000" />	<path d = "M320 140 L320 136 L316 136 L316 140 L320 140 Z" stroke = "#008000" stroke-width = "1" fill = "#008000" />	<path d = "M329 140 L329 136 L325 136 L325 140 L329 140 Z" stroke = "#008000" stroke-width = "1" fill = "#008000" />	<path d = "M329 131 L329 127 L325 127 L325 131 L329 131 Z" stroke = "#008000" stroke-width = "1" fill = "#008000" />	<path d = "M338 131 L338 127 L334 127 L334 131 L338 131 Z" stroke = "#008000" stroke-width = "1" fill = "#008000" />	<path d = "M347 131 L347 127 L343 127 L343 131 L347 131 Z" stroke = "#008000" stroke-width = "1" fill = "#008000" />	<path d = "M347 122 L347 118 L343 118 L343 122 L347 122 Z" stroke = "#008000" stroke-width = "1" fill = "#008000" />	<path d = "M356 122 L356 118 L352 118 L352 122 L356 122 Z" stroke = "#008000" stroke-width = "1" fill = "#008000" />	<path d = "M365 122 L365 118 L361 118 L361 122 L365 122 Z" stroke = "#008000" stroke-width = "1" fill = "#008000" />	<path d = "M365 113 L365 109 L361 109 L361 113 L365 113 Z" stroke = "#008000" stroke-width = "1" fill = "#008000" />	<path d = "M374 113 L374 109 L370 109 L370 113 L374 113 Z" stroke = "#008000" stroke-width = "1" fill = "#008000" />	<path d = "M383 113 L383 109 L379 109 L379 113 L383 113 Z" stroke = "#008000" stroke-width = "1" fill = "#008000" />	<path d = "M383 104 L383 100 L379 100 L379 104 L383 104 Z" stroke = "#008000" stroke-width = "1" fill = "#008000" />	<path d = "M392 104 L392 100 L388 100 L388 104 L392 104 Z" stroke = "#008000" stroke-width = "1" fill = "#008000" />	<path d = "M392 113 L392 109 L388 109 L388 113 L392 113 Z" stroke = "#008000" stroke-width = "1" fill = "#008000" />	<path d = "M392 122 L392 118 L388 118 L388 122 L392 122 Z" stroke = "#008000" stroke-width = "1" fill = "#008000" />	<path d = "M401 122 L401 118 L397 118 L397 122 L401 122 Z" stroke = "#008000" stroke-width = "1" fill = "#008000" />	<path d = "M401 131 L401 127 L397 127 L397 131 L401 131 Z" stroke = "#008000" stroke-width = "1" fill = "#008000" />	<path d = "M392 131 L392 127 L388 127 L388 131 L392 131 Z" stroke = "#008000" stroke-width = "1" fill = "#008000" />	<path d = "M392 140 L392 136 L388 136 L388 140 L392 140 Z" stroke = "#008000" stroke-width = "1" fill = "#008000" />	<path d = "M392 149 L392 145 L388 145 L388 149 L392 149 Z" stroke = "#008000" stroke-width = "1" fill = "#008000" />	<path d = "M383 158 L383 154 L379 154 L379 158 L383 158 Z" stroke = "#008000" stroke-width = "1" fill = "#008000" />	<path d = "M374 167 L374 163 L370 163 L370 167 L374 167 Z" stroke = "#008000" stroke-width = "1" fill = "#008000" />	<path d = "M365 167 L365 163 L361 163 L361 167 L365 167 Z" stroke = "#008000" stroke-width = "1" fill = "#008000" />	<path d = "M356 167 L356 163 L352 163 L352 167 L356 167 Z" stroke = "#008000" stroke-width = "1" fill = "#008000" />	<path d = "M347 176 L347 172 L343 172 L343 176 L347 176 Z" stroke = "#008000" stroke-width = "1" fill = "#008000" />	<path d = "M338 176 L338 172 L334 172 L334 176 L338 176 Z" stroke = "#008000" stroke-width = "1" fill = "#008000" />	<path d = "M329 176 L329 172 L325 172 L325 176 L329 176 Z" stroke = "#008000" stroke-width = "1" fill = "#008000" />	<path d = "M320 176 L320 172 L316 172 L316 176 L320 176 Z" stroke = "#008000" stroke-width = "1" fill = "#008000" />	<path d = "M311 176 L311 172 L307 172 L307 176 L311 176 Z" stroke = "#008000" stroke-width = "1" fill = "#008000" />	<path d = "M302 176 L302 172 L298 172 L298 176 L302 176 Z" stroke = "#008000" stroke-width = "1" fill = "#008000" />	<path d = "M419 149 L419 145 L415 145 L415 149 L419 149 Z" stroke = "#000000" stroke-width = "1" fill = "#000000" />	<path d = "M419 158 L419 154 L415 154 L415 158 L419 158 Z" stroke = "#000000" stroke-width = "1" fill = "#000000" />	<path d = "M410 167 L410 163 L406 163 L406 167 L410 167 Z" stroke = "#000000" stroke-width = "1" fill = "#000000" />	<path d = "M410 176 L410 172 L406 172 L406 176 L410 176 Z" stroke = "#000000" stroke-width = "1" fill = "#000000" />	<path d = "M401 185 L401 181 L397 181 L397 185 L401 185 Z" stroke = "#000000" stroke-width = "1" fill = "#000000" />	<path d = "M392 194 L392 190 L388 190 L388 194 L392 194 Z" stroke = "#000000" stroke-width = "1" fill = "#000000" />	<path d = "M383 203 L383 199 L379 199 L379 203 L383 203 Z" stroke = "#000000" stroke-width = "1" fill = "#000000" />	<path d = "M374 203 L374 199 L370 199 L370 203 L374 203 Z" stroke = "#000000" stroke-width = "1" fill = "#000000" />	<path d = "M365 203 L365 199 L361 199 L361 203 L365 203 Z" stroke = "#000000" stroke-width = "1" fill = "#000000" />	<path d = "M356 203 L356 199 L352 199 L352 203 L356 203 Z" stroke = "#000000" stroke-width = "1" fill = "#000000" />	<path d = "M347 203 L347 199 L343 199 L343 203 L347 203 Z" stroke = "#000000" stroke-width = "1" fill = "#000000" />	<path d = "M257 104 L257 100 L253 100 L253 104 L257 104 Z" stroke = "#000000" stroke-width = "1" fill = "#000000" />	<path d = "M248 104 L248 100 L244 100 L244 104 L248 104 Z" stroke = "#000000" stroke-width = "1" fill = "#000000" />	<path d = "M239 104 L239 100 L235 100 L235 104 L239 104 Z" stroke = "#000000" stroke-width = "1" fill = "#000000" />	<path d = "M230 104 L230 100 L226 100 L226 104 L230 104 Z" stroke = "#000000" stroke-width = "1" fill = "#000000" />	<path d = "M221 113 L221 109 L217 109 L217 113 L221 113 Z" stroke = "#000000" stroke-width = "1" fill = "#000000" />	<path d = "M212 113 L212 109 L208 109 L208 113 L212 113 Z" stroke = "#000000" stroke-width = "1" fill = "#000000" />	<path d = "M203 122 L203 118 L199 118 L199 122 L203 122 Z" stroke = "#000000" stroke-width = "1" fill = "#000000" />	<path d = "M194 131 L194 127 L190 127 L190 131 L194 131 Z" stroke = "#000000" stroke-width = "1" fill = "#000000" />	<path d = "M185 131 L185 127 L181 127 L181 131 L185 131 Z" stroke = "#000000" stroke-width = "1" fill = "#000000" />	<path d = "M176 140 L176 136 L172 136 L172 140 L176 140 Z" stroke = "#000000" stroke-width = "1" fill = "#000000" />	<path d = "M176 149 L176 145 L172 145 L172 149 L176 149 Z" stroke = "#000000" stroke-width = "1" fill = "#000000" />	<path d = "M176 158 L176 154 L172 154 L172 158 L176 158 Z" stroke = "#000000" stroke-width = "1" fill = "#000000" />	<path d = "M167 167 L167 163 L163 163 L163 167 L167 167 Z" stroke = "#000000" stroke-width = "1" fill = "#000000" />	<path d = "M167 176 L167 172 L163 172 L163 176 L167 176 Z" stroke = "#000000" stroke-width = "1" fill = "#000000" />	<path d = "M167 185 L167 181 L163 181 L163 185 L167 185 Z" stroke = "#000000" stroke-width = "1" fill = "#000000" />	<path d = "M167 194 L167 190 L163 190 L163 194 L167 194 Z" stroke = "#000000" stroke-width = "1" fill = "#000000" />	<path d = "M167 203 L167 199 L163 199 L163 203 L167 203 Z" stroke = "#000000" stroke-width = "1" fill = "#000000" />	<path d = "M185 104 L185 100 L181 100 L181 104 L185 104 Z" stroke = "#000000" stroke-width = "1" fill = "#000000" />	<path d = "M194 95 L194 91 L190 91 L190 95 L194 95 Z" stroke = "#000000" stroke-width = "1" fill = "#000000" />	<path d = "M203 95 L203 91 L199 91 L199 95 L203 95 Z" stroke = "#000000" stroke-width = "1" fill = "#000000" />	<path d = "M212 86 L212 82 L208 82 L208 86 L212 86 Z" stroke = "#000000" stroke-width = "1" fill = "#000000" />	<path d = "M221 86 L221 82 L217 82 L217 86 L221 86 Z" stroke = "#000000" stroke-width = "1" fill = "#000000" />	<path d = "M230 77 L230 73 L226 73 L226 77 L230 77 Z" stroke = "#000000" stroke-width = "1" fill = "#000000" />	<path d = "M239 77 L239 73 L235 73 L235 77 L239 77 Z" stroke = "#000000" stroke-width = "1" fill = "#000000" />	<path d = "M248 77 L248 73 L244 73 L244 77 L248 77 Z" stroke = "#000000" stroke-width = "1" fill = "#000000" />	<path d = "M257 77 L257 73 L253 73 L253 77 L257 77 Z" stroke = "#000000" stroke-width = "1" fill = "#000000" />	<path d = "M266 77 L266 73 L262 73 L262 77 L266 77 Z" stroke = "#000000" stroke-width = "1" fill = "#000000" />	<path d = "M275 77 L275 73 L271 73 L271 77 L275 77 Z" stroke = "#000000" stroke-width = "1" fill = "#000000" />	<path d = "M284 77 L284 73 L280 73 L280 77 L284 77 Z" stroke = "#000000" stroke-width = "1" fill = "#000000" />	<path d = "M293 86 L293 82 L289 82 L289 86 L293 86 Z" stroke = "#000000" stroke-width = "1" fill = "#000000" />	<path d = "M302 86 L302 82 L298 82 L298 86 L302 86 Z" stroke = "#000000" stroke-width = "1" fill = "#000000" />	<path d = "M149 419 L149 415 L145 415 L145 419 L149 419 Z" stroke = "#000000" stroke-width = "1" fill = "#000000" />	<path d = "M149 410 L149 406 L145 406 L145 410 L149 410 Z" stroke = "#000000" stroke-width = "1" fill = "#000000" />	<path d = "M149 401 L149 397 L145 397 L145 401 L149 401 Z" stroke = "#000000" stroke-width = "1" fill = "#000000" />	<path d = "M149 392 L149 388 L145 388 L145 392 L149 392 Z" stroke = "#000000" stroke-width = "1" fill = "#000000" />	<path d = "M149 383 L149 379 L145 379 L145 383 L149 383 Z" stroke = "#000000" stroke-width = "1" fill = "#000000" />	<path d = "M149 374 L149 370 L145 370 L145 374 L149 374 Z" stroke = "#000000" stroke-width = "1" fill = "#000000" />	<path d = "M149 365 L149 361 L145 361 L145 365 L149 365 Z" stroke = "#000000" stroke-width = "1" fill = "#000000" />	<path d = "M158 365 L158 361 L154 361 L154 365 L158 365 Z" stroke = "#000000" stroke-width = "1" fill = "#000000" />	<path d = "M167 365 L167 361 L163 361 L163 365 L167 365 Z" stroke = "#000000" stroke-width = "1" fill = "#000000" />	<path d = "M176 365 L176 361 L172 361 L172 365 L176 365 Z" stroke = "#000000" stroke-width = "1" fill = "#000000" />	<path d = "M185 374 L185 370 L181 370 L181 374 L185 374 Z" stroke = "#000000" stroke-width = "1" fill = "#000000" />	<path d = "M185 383 L185 379 L181 379 L181 383 L185 383 Z" stroke = "#000000" stroke-width = "1" fill = "#000000" />	<path d = "M176 392 L176 388 L172 388 L172 392 L176 392 Z" stroke = "#000000" stroke-width = "1" fill = "#000000" />	<path d = "M167 392 L167 388 L163 388 L163 392 L167 392 Z" stroke = "#000000" stroke-width = "1" fill = "#000000" />	<path d = "M158 392 L158 388 L154 388 L154 392 L158 392 Z" stroke = "#000000" stroke-width = "1" fill = "#000000" />	<path d = "M167 401 L167 397 L163 397 L163 401 L167 401 Z" stroke = "#000000" stroke-width = "1" fill = "#000000" />	<path d = "M176 410 L176 406 L172 406 L172 410 L176 410 Z" stroke = "#000000" stroke-width = "1" fill = "#000000" />	<path d = "M185 419 L185 415 L181 415 L181 419 L185 419 Z" stroke = "#000000" stroke-width = "1" fill = "#000000" />	<path d = "M203 410 L203 406 L199 406 L199 410 L203 410 Z" stroke = "#000000" stroke-width = "1" fill = "#000000" />	<path d = "M203 401 L203 397 L199 397 L199 401 L203 401 Z" stroke = "#000000" stroke-width = "1" fill = "#000000" />	<path d = "M203 392 L203 388 L199 388 L199 392 L203 392 Z" stroke = "#000000" stroke-width = "1" fill = "#000000" />	<path d = "M212 383 L212 379 L208 379 L208 383 L212 383 Z" stroke = "#000000" stroke-width = "1" fill = "#000000" />	<path d = "M221 383 L221 379 L217 379 L217 383 L221 383 Z" stroke = "#000000" stroke-width = "1" fill = "#000000" />	<path d = "M230 383 L230 379 L226 379 L226 383 L230 383 Z" stroke = "#000000" stroke-width = "1" fill = "#000000" />	<path d = "M239 392 L239 388 L235 388 L235 392 L239 392 Z" stroke = "#000000" stroke-width = "1" fill = "#000000" />	<path d = "M239 401 L239 397 L235 397 L235 401 L239 401 Z" stroke = "#000000" stroke-width = "1" fill = "#000000" />	<path d = "M230 401 L230 397 L226 397 L226 401 L230 401 Z" stroke = "#000000" stroke-width = "1" fill = "#000000" />	<path d = "M221 401 L221 397 L217 397 L217 401 L221 401 Z" stroke = "#000000" stroke-width = "1" fill = "#000000" />	<path d = "M212 401 L212 397 L208 397 L208 401 L212 401 Z" stroke = "#000000" stroke-width = "1" fill = "#000000" />	<path d = "M212 419 L212 415 L208 415 L208 419 L212 419 Z" stroke = "#000000" stroke-width = "1" fill = "#000000" />	<path d = "M221 419 L221 415 L217 415 L217 419 L221 419 Z" stroke = "#000000" stroke-width = "1" fill = "#000000" />	<path d = "M230 419 L230 415 L226 415 L226 419 L230 419 Z" stroke = "#000000" stroke-width = "1" fill = "#000000" />	<path d = "M257 419 L257 415 L253 415 L253 419 L257 419 Z" stroke = "#000000" stroke-width = "1" fill = "#000000" />	<path d = "M257 410 L257 406 L253 406 L253 410 L257 410 Z" stroke = "#000000" stroke-width = "1" fill = "#000000" />	<path d = "M257 401 L257 397 L253 397 L253 401 L257 401 Z" stroke = "#000000" stroke-width = "1" fill = "#000000" />	<path d = "M257 392 L257 388 L253 388 L253 392 L257 392 Z" stroke = "#000000" stroke-width = "1" fill = "#000000" />	<path d = "M257 383 L257 379 L253 379 L253 383 L257 383 Z" stroke = "#000000" stroke-width = "1" fill = "#000000" />	<path d = "M257 374 L257 370 L253 370 L253 374 L257 374 Z" stroke = "#000000" stroke-width = "1" fill = "#000000" />	<path d = "M257 365 L257 361 L253 361 L253 365 L257 365 Z" stroke = "#000000" stroke-width = "1" fill = "#000000" />	<path d = "M266 419 L266 415 L262 415 L262 419 L266 419 Z" stroke = "#000000" stroke-width = "1" fill = "#000000" />	<path d = "M275 419 L275 415 L271 415 L271 419 L275 419 Z" stroke = "#000000" stroke-width = "1" fill = "#000000" />	<path d = "M284 419 L284 415 L280 415 L280 419 L284 419 Z" stroke = "#000000" stroke-width = "1" fill = "#000000" />	<path d = "M293 419 L293 415 L289 415 L289 419 L293 419 Z" stroke = "#000000" stroke-width = "1" fill = "#000000" />	<path d = "M311 410 L311 406 L307 406 L307 410 L311 410 Z" stroke = "#000000" stroke-width = "1" fill = "#000000" />	<path d = "M311 401 L311 397 L307 397 L307 401 L311 401 Z" stroke = "#000000" stroke-width = "1" fill = "#000000" />	<path d = "M311 392 L311 388 L307 388 L307 392 L311 392 Z" stroke = "#000000" stroke-width = "1" fill = "#000000" />	<path d = "M320 383 L320 379 L316 379 L316 383 L320 383 Z" stroke = "#000000" stroke-width = "1" fill = "#000000" />	<path d = "M329 383 L329 379 L325 379 L325 383 L329 383 Z" stroke = "#000000" stroke-width = "1" fill = "#000000" />	<path d = "M338 383 L338 379 L334 379 L334 383 L338 383 Z" stroke = "#000000" stroke-width = "1" fill = "#000000" />	<path d = "M347 392 L347 388 L343 388 L343 392 L347 392 Z" stroke = "#000000" stroke-width = "1" fill = "#000000" />	<path d = "M347 401 L347 397 L343 397 L343 401 L347 401 Z" stroke = "#000000" stroke-width = "1" fill = "#000000" />	<path d = "M338 401 L338 397 L334 397 L334 401 L338 401 Z" stroke = "#000000" stroke-width = "1" fill = "#000000" />	<path d = "M329 401 L329 397 L325 397 L325 401 L329 401 Z" stroke = "#000000" stroke-width = "1" fill = "#000000" />	<path d = "M320 401 L320 397 L316 397 L316 401 L320 401 Z" stroke = "#000000" stroke-width = "1" fill = "#000000" />	<path d = "M320 419 L320 415 L316 415 L316 419 L320 419 Z" stroke = "#000000" stroke-width = "1" fill = "#000000" />	<path d = "M329 419 L329 415 L325 415 L325 419 L329 419 Z" stroke = "#000000" stroke-width = "1" fill = "#000000" />	<path d = "M338 419 L338 415 L334 415 L334 419 L338 419 Z" stroke = "#000000" stroke-width = "1" fill = "#000000" />	<path d = "M365 410 L365 406 L361 406 L361 410 L365 410 Z" stroke = "#000000" stroke-width = "1" fill = "#000000" />	<path d = "M374 401 L374 397 L370 397 L370 401 L374 401 Z" stroke = "#000000" stroke-width = "1" fill = "#000000" />	<path d = "M383 401 L383 397 L379 397 L379 401 L383 401 Z" stroke = "#000000" stroke-width = "1" fill = "#000000" />	<path d = "M392 401 L392 397 L388 397 L388 401 L392 401 Z" stroke = "#000000" stroke-width = "1" fill = "#000000" />	<path d = "M401 401 L401 397 L397 397 L397 401 L401 401 Z" stroke = "#000000" stroke-width = "1" fill = "#000000" />	<path d = "M401 392 L401 388 L397 388 L397 392 L401 392 Z" stroke = "#000000" stroke-width = "1" fill = "#000000" />	<path d = "M392 383 L392 379 L388 379 L388 383 L392 383 Z" stroke = "#000000" stroke-width = "1" fill = "#000000" />	<path d = "M383 383 L383 379 L379 379 L379 383 L383 383 Z" stroke = "#000000" stroke-width = "1" fill = "#000000" />	<path d = "M374 383 L374 379 L370 379 L370 383 L374 383 Z" stroke = "#000000" stroke-width = "1" fill = "#000000" />	<path d = "M401 410 L401 406 L397 406 L397 410 L401 410 Z" stroke = "#000000" stroke-width = "1" fill = "#000000" />	<path d = "M401 419 L401 415 L397 415 L397 419 L401 419 Z" stroke = "#000000" stroke-width = "1" fill = "#000000" />	<path d = "M392 419 L392 415 L388 415 L388 419 L392 419 Z" stroke = "#000000" stroke-width = "1" fill = "#000000" />	<path d = "M383 419 L383 415 L379 415 L379 419 L383 419 Z" stroke = "#000000" stroke-width = "1" fill = "#000000" />	<path d = "M374 419 L374 415 L370 415 L370 419 L374 419 Z" stroke = "#000000" stroke-width = "1" fill = "#000000" />	<path d = "M437 419 L437 415 L433 415 L433 419 L437 419 Z" stroke = "#000000" stroke-width = "1" fill = "#000000" />	<path d = "M437 410 L437 406 L433 406 L433 410 L437 410 Z" stroke = "#000000" stroke-width = "1" fill = "#000000" />	<path d = "M437 401 L437 397 L433 397 L433 401 L437 401 Z" stroke = "#000000" stroke-width = "1" fill = "#000000" />	<path d = "M437 392 L437 388 L433 388 L433 392 L437 392 Z" stroke = "#000000" stroke-width = "1" fill = "#000000" />	<path d = "M437 383 L437 379 L433 379 L433 383 L437 383 Z" stroke = "#000000" stroke-width = "1" fill = "#000000" />	<path d = "M437 374 L437 370 L433 370 L433 374 L437 374 Z" stroke = "#000000" stroke-width = "1" fill = "#000000" />	<path d = "M446 365 L446 361 L442 361 L442 365 L446 365 Z" stroke = "#000000" stroke-width = "1" fill = "#000000" />	<path d = "M455 365 L455 361 L451 361 L451 365 L455 365 Z" stroke = "#000000" stroke-width = "1" fill = "#000000" />	<path d = "M446 392 L446 388 L442 388 L442 392 L446 392 Z" stroke = "#000000" stroke-width = "1" fill = "#000000" />	<path d = "M428 392 L428 388 L424 388 L424 392 L428 392 Z" stroke = "#000000" stroke-width = "1" fill = "#000000" />	<path d = "M185 509 L185 505 L181 505 L181 509 L185 509 Z" stroke = "#000000" stroke-width = "1" fill = "#000000" />	<path d = "M185 500 L185 496 L181 496 L181 500 L185 500 Z" stroke = "#000000" stroke-width = "1" fill = "#000000" />	<path d = "M194 500 L194 496 L190 496 L190 500 L194 500 Z" stroke = "#000000" stroke-width = "1" fill = "#000000" />	<path d = "M194 509 L194 505 L190 505 L190 509 L194 509 Z" stroke = "#000000" stroke-width = "1" fill = "#000000" />	<path d = "M221 509 L221 505 L217 505 L217 509 L221 509 Z" stroke = "#000000" stroke-width = "1" fill = "#000000" />	<path d = "M230 509 L230 505 L226 505 L226 509 L230 509 Z" stroke = "#000000" stroke-width = "1" fill = "#000000" />	<path d = "M239 509 L239 505 L235 505 L235 509 L239 509 Z" stroke = "#000000" stroke-width = "1" fill = "#000000" />	<path d = "M248 509 L248 505 L244 505 L244 509 L248 509 Z" stroke = "#000000" stroke-width = "1" fill = "#000000" />	<path d = "M257 500 L257 496 L253 496 L253 500 L257 500 Z" stroke = "#000000" stroke-width = "1" fill = "#000000" />	<path d = "M248 491 L248 487 L244 487 L244 491 L248 491 Z" stroke = "#000000" stroke-width = "1" fill = "#000000" />	<path d = "M239 491 L239 487 L235 487 L235 491 L239 491 Z" stroke = "#000000" stroke-width = "1" fill = "#000000" />	<path d = "M230 491 L230 487 L226 487 L226 491 L230 491 Z" stroke = "#000000" stroke-width = "1" fill = "#000000" />	<path d = "M221 482 L221 478 L217 478 L217 482 L221 482 Z" stroke = "#000000" stroke-width = "1" fill = "#000000" />	<path d = "M230 473 L230 469 L226 469 L226 473 L230 473 Z" stroke = "#000000" stroke-width = "1" fill = "#000000" />	<path d = "M239 473 L239 469 L235 469 L235 473 L239 473 Z" stroke = "#000000" stroke-width = "1" fill = "#000000" />	<path d = "M248 473 L248 469 L244 469 L244 473 L248 473 Z" stroke = "#000000" stroke-width = "1" fill = "#000000" />	<path d = "M257 473 L257 469 L253 469 L253 473 L257 473 Z" stroke = "#000000" stroke-width = "1" fill = "#000000" />	<path d = "M284 509 L284 505 L280 505 L280 509 L284 509 Z" stroke = "#000000" stroke-width = "1" fill = "#000000" />	<path d = "M293 509 L293 505 L289 505 L289 509 L293 509 Z" stroke = "#000000" stroke-width = "1" fill = "#000000" />	<path d = "M302 509 L302 505 L298 505 L298 509 L302 509 Z" stroke = "#000000" stroke-width = "1" fill = "#000000" />	<path d = "M293 500 L293 496 L289 496 L289 500 L293 500 Z" stroke = "#000000" stroke-width = "1" fill = "#000000" />	<path d = "M293 491 L293 487 L289 487 L289 491 L293 491 Z" stroke = "#000000" stroke-width = "1" fill = "#000000" />	<path d = "M293 482 L293 478 L289 478 L289 482 L293 482 Z" stroke = "#000000" stroke-width = "1" fill = "#000000" />	<path d = "M293 473 L293 469 L289 469 L289 473 L293 473 Z" stroke = "#000000" stroke-width = "1" fill = "#000000" />	<path d = "M284 473 L284 469 L280 469 L280 473 L284 473 Z" stroke = "#000000" stroke-width = "1" fill = "#000000" />	<path d = "M293 455 L293 451 L289 451 L289 455 L293 455 Z" stroke = "#000000" stroke-width = "1" fill = "#000000" />	<path d = "M338 500 L338 496 L334 496 L334 500 L338 500 Z" stroke = "#000000" stroke-width = "1" fill = "#000000" />	<path d = "M338 491 L338 487 L334 487 L334 491 L338 491 Z" stroke = "#000000" stroke-width = "1" fill = "#000000" />	<path d = "M338 482 L338 478 L334 478 L334 482 L338 482 Z" stroke = "#000000" stroke-width = "1" fill = "#000000" />	<path d = "M338 473 L338 469 L334 469 L334 473 L338 473 Z" stroke = "#000000" stroke-width = "1" fill = "#000000" />	<path d = "M338 464 L338 460 L334 460 L334 464 L338 464 Z" stroke = "#000000" stroke-width = "1" fill = "#000000" />	<path d = "M338 455 L338 451 L334 451 L334 455 L338 455 Z" stroke = "#000000" stroke-width = "1" fill = "#000000" />	<path d = "M329 464 L329 460 L325 460 L325 464 L329 464 Z" stroke = "#000000" stroke-width = "1" fill = "#000000" />	<path d = "M347 464 L347 460 L343 460 L343 464 L347 464 Z" stroke = "#000000" stroke-width = "1" fill = "#000000" />	<path d = "M347 509 L347 505 L343 505 L343 509 L347 509 Z" stroke = "#000000" stroke-width = "1" fill = "#000000" />	<path d = "M356 509 L356 505 L352 505 L352 509 L356 509 Z" stroke = "#000000" stroke-width = "1" fill = "#000000" />	<path d = "M365 500 L365 496 L361 496 L361 500 L365 500 Z" stroke = "#000000" stroke-width = "1" fill = "#000000" />	<path d = "M383 500 L383 496 L379 496 L379 500 L383 500 Z" stroke = "#000000" stroke-width = "1" fill = "#000000" />	<path d = "M383 491 L383 487 L379 487 L379 491 L383 491 Z" stroke = "#000000" stroke-width = "1" fill = "#000000" />	<path d = "M383 482 L383 478 L379 478 L379 482 L383 482 Z" stroke = "#000000" stroke-width = "1" fill = "#000000" />	<path d = "M392 473 L392 469 L388 469 L388 473 L392 473 Z" stroke = "#000000" stroke-width = "1" fill = "#000000" />	<path d = "M401 473 L401 469 L397 469 L397 473 L401 473 Z" stroke = "#000000" stroke-width = "1" fill = "#000000" />	<path d = "M410 473 L410 469 L406 469 L406 473 L410 473 Z" stroke = "#000000" stroke-width = "1" fill = "#000000" />	<path d = "M419 482 L419 478 L415 478 L415 482 L419 482 Z" stroke = "#000000" stroke-width = "1" fill = "#000000" />	<path d = "M419 491 L419 487 L415 487 L415 491 L419 491 Z" stroke = "#000000" stroke-width = "1" fill = "#000000" />	<path d = "M410 491 L410 487 L406 487 L406 491 L410 491 Z" stroke = "#000000" stroke-width = "1" fill = "#000000" />	<path d = "M401 491 L401 487 L397 487 L397 491 L401 491 Z" stroke = "#000000" stroke-width = "1" fill = "#000000" />	<path d = "M392 491 L392 487 L388 487 L388 491 L392 491 Z" stroke = "#000000" stroke-width = "1" fill = "#000000" />	<path d = "M392 509 L392 505 L388 505 L388 509 L392 509 Z" stroke = "#000000" stroke-width = "1" fill = "#000000" />	<path d = "M401 509 L401 505 L397 505 L397 509 L401 509 Z" stroke = "#000000" stroke-width = "1" fill = "#000000" />	<path d = "M410 509 L410 505 L406 505 L406 509 L410 509 Z" stroke = "#000000" stroke-width = "1" fill = "#000000" /></svg>